<svg width="1440" height="160" viewBox="0 0 1440 160" fill="none" xmlns="http://www.w3.org/2000/svg">
<g opacity="0.1" clip-path="url(#clip0_5_574)">
<g opacity="0.2">
<path d="M723.36 140.49V134.78H708.7V132.31H708.72V117.22H702.09V101.06H699.97V117.22H694.78V125.72H687.21V104.1H681.6V85.57H681.74V57.32H671.41V71.43H663.21V58.83H654.63V26.09L654.61 26.1V1.34H640.43V32.55L610.65 46.09V140.49H604.24V69.99H579.5V105.63H573.11V116.74H564.23V128.16H551.74V23.72L516.11 52.87V140.49H509.63V84.18H500.47V75.82H494.13V68.52H472.92V53.95H464.63V38.39H452.89V53.95H449.17V131.33H296.67V68.52H287.2V58.37H273.24V68.52H264.16V78.78H253.48V121.18H237V65.57H227.89V56.72H208.91V65.57H201.26V118.64H196.16V140.49H190.45V123.72H182.02V97.55H166.34V63.76H163.17V97.55H157.28V125.94H151.11V116.42H146.7V80.97H137.12V41.82L121.61 35.87V0H117.81V34.41L109.63 31.27V91.36H100.04V100.24H95.6V108.92H90.28V125.38H77.19V102.48H68.69V78.28H57.57V102.48H45.79V140.49H39.22V127.42H19.96V140.49H0V300.24H750V140.49H723.36Z" fill="white"/>
<path d="M1473.36 140.49V134.78H1458.7V132.31H1458.72V117.22H1452.09V101.06H1449.97V117.22H1444.78V125.72H1437.21V104.1H1431.6V85.57H1431.74V57.32H1421.41V71.43H1413.21V58.83H1404.63V26.09L1404.61 26.1V1.34H1390.43V32.55L1360.65 46.09V140.49H1354.24V69.99H1329.5V105.63H1323.11V116.74H1314.23V128.16H1301.74V23.72L1266.11 52.87V140.49H1259.63V84.18H1250.47V75.82H1244.13V68.52H1222.92V53.95H1214.63V38.39H1202.89V53.95H1199.17V131.33H1046.67V68.52H1037.2V58.37H1023.24V68.52H1014.16V78.78H1003.48V121.18H987V65.57H977.89V56.72H958.91V65.57H951.26V118.64H946.16V140.49H940.45V123.72H932.02V97.55H916.34V63.76H913.17V97.55H907.28V125.94H901.11V116.42H896.7V80.97H887.12V41.82L871.61 35.87V0H867.81V34.41L859.63 31.27V91.36H850.04V100.24H845.6V108.92H840.28V125.38H827.19V102.48H818.69V78.28H807.57V102.48H795.79V140.49H789.22V127.42H769.96V140.49H750V300.24H1500V140.49H1473.36Z" fill="white"/>
</g>
</g>
<defs>
<clipPath id="clip0_5_574">
<rect width="1440" height="160" fill="white"/>
</clipPath>
</defs>
</svg>
