<svg width="560" height="543" viewBox="0 0 560 543" fill="none" xmlns="http://www.w3.org/2000/svg">
<rect width="560" height="543" fill="#F5F5F5"/>
<rect width="1440" height="1150" transform="translate(-740 -192)" fill="#FDFCF9"/>
<rect width="560" height="543" rx="8" fill="#1B2A49"/>
<g clip-path="url(#clip0_0_1)">
<path d="M448.203 208.48V215.097H444.452V276.159H463.461V267.319H505.33V375.843H392.928V215.097H387.935V208.48H448.203Z" fill="#B7D4E8"/>
<path d="M47.2463 276.293H94.7081V202.764H157.772V376.099H52.5396V282.921H47.2463V276.293Z" fill="#B7D4E8"/>
<path d="M310.167 104.86C310.167 104.86 409.041 265.573 458.623 211.794C458.623 211.794 485.588 180.935 468.843 177.21C447.903 172.539 433.666 222.926 409.585 251.594C366.54 302.86 264.681 249.115 264.681 249.115" stroke="#A5BDF6" stroke-width="0.73" stroke-miterlimit="10" stroke-dasharray="3.9 3.9"/>
<path d="M299.736 81.3292C299.67 81.1624 308.458 86.6003 308.458 86.6003L306.239 101.424L301.911 90.3034L290.57 88.1572L274.346 73L299.736 81.3292Z" fill="#2745AD"/>
<path d="M274.346 73L306.206 101.424L301.878 90.3479L274.346 73Z" fill="#1F377C"/>
<path d="M274.346 73L316.437 81.8741L308.458 86.6003L274.346 73L301.878 90.3479L288.295 98.7772L274.346 73Z" fill="#5A7BCC"/>
<path d="M219.361 138.132C220.94 136.303 222.614 134.558 224.376 132.906C227.805 129.948 231.745 124.721 244.351 128.58C245.324 128.901 246.279 129.272 247.214 129.692C248.324 130.17 251.764 130.181 255.282 127.379C260.83 122.931 263.049 119.595 270.717 119.472C279.595 119.35 281.038 130.482 287.962 133.328C292.401 135.141 303.997 136.954 306.405 137.777L219.361 138.132Z" fill="white"/>
<path d="M76.3093 97.1536C77.3756 95.9204 78.5053 94.7437 79.6939 93.6284C82.0132 91.6268 84.6654 88.0682 93.1656 90.7038C93.8238 90.9124 94.4687 91.1612 95.0965 91.4488C95.8511 91.7602 98.1704 91.7713 100.545 89.8808C104.318 86.8783 105.805 84.6098 110.976 84.5319C116.991 84.4541 117.934 91.9715 122.617 93.8953C125.591 95.1297 133.448 96.3418 135.079 96.8867L76.3093 97.1536Z" fill="white"/>
<path d="M489.019 355.824C497.65 352.28 501.781 342.395 498.244 333.745C494.708 325.095 484.844 320.956 476.212 324.5C467.581 328.044 463.45 337.929 466.987 346.579C470.523 355.229 480.387 359.368 489.019 355.824Z" fill="#5A7BCC"/>
<path d="M494.477 317.483C494.479 319.837 493.784 322.139 492.481 324.098C491.177 326.056 489.322 327.583 487.152 328.485C484.982 329.387 482.594 329.624 480.29 329.165C477.985 328.706 475.869 327.573 474.207 325.908C472.546 324.243 471.415 322.122 470.957 319.813C470.499 317.504 470.735 315.11 471.635 312.936C472.536 310.761 474.059 308.903 476.014 307.596C477.968 306.289 480.265 305.593 482.614 305.595C485.76 305.598 488.775 306.852 490.999 309.08C493.223 311.309 494.474 314.331 494.477 317.483Z" fill="#5A7BCC"/>
<path d="M482.614 312.201V376.577" stroke="#384AAE" stroke-miterlimit="10"/>
<path d="M476.389 336.31L482.614 344.695" stroke="#384AAE" stroke-miterlimit="10"/>
<path d="M488.274 327.936L482.614 336.799" stroke="#384AAE" stroke-miterlimit="10"/>
<path d="M85.5342 352.618C92.4148 346.307 92.8868 335.601 86.5886 328.706C80.2904 321.811 69.6069 321.338 62.7264 327.649C55.8458 333.961 55.3738 344.667 61.672 351.562C67.9702 358.457 78.6537 358.93 85.5342 352.618Z" fill="#5A7BCC"/>
<path d="M85.9859 317.483C85.9881 319.837 85.2933 322.139 83.9895 324.098C82.6856 326.056 80.8313 327.583 78.6612 328.485C76.4911 329.387 74.1028 329.624 71.7984 329.165C69.4941 328.706 67.3774 327.573 65.7162 325.908C64.0549 324.243 62.9238 322.122 62.466 319.813C62.0082 317.504 62.2443 315.11 63.1444 312.936C64.0444 310.761 65.5681 308.903 67.5224 307.596C69.4767 306.289 71.7739 305.593 74.1233 305.595C77.2685 305.598 80.2842 306.852 82.5082 309.08C84.7323 311.309 85.983 314.331 85.9859 317.483Z" fill="#5A7BCC"/>
<path d="M74.1233 312.201V376.577" stroke="#384AAE" stroke-miterlimit="10"/>
<path d="M67.9089 336.31L74.1232 344.695" stroke="#384AAE" stroke-miterlimit="10"/>
<path d="M79.7828 327.936L74.1233 336.799" stroke="#384AAE" stroke-miterlimit="10"/>
<path d="M486.265 121.53H370.546C367.512 121.53 365.053 123.994 365.053 127.034V148.63C365.053 151.67 367.512 154.135 370.546 154.135H486.265C489.299 154.135 491.758 151.67 491.758 148.63V127.034C491.758 123.994 489.299 121.53 486.265 121.53Z" fill="#7D9EE6"/>
<path d="M374.652 149.731L379.912 159.951C380.058 160.239 380.279 160.483 380.551 160.657C380.824 160.831 381.138 160.929 381.46 160.94C381.783 160.951 382.103 160.876 382.387 160.722C382.671 160.567 382.908 160.339 383.074 160.062L389.366 149.731H374.652Z" fill="#7D9EE6"/>
<path d="M397.223 131.004L398.777 134.174C398.831 134.274 398.907 134.361 398.999 134.429C399.091 134.496 399.197 134.542 399.309 134.563L402.794 135.063C402.924 135.083 403.046 135.139 403.146 135.225C403.247 135.311 403.321 135.423 403.362 135.549C403.402 135.675 403.406 135.809 403.375 135.938C403.343 136.066 403.276 136.183 403.182 136.275L400.652 138.733C400.57 138.814 400.508 138.915 400.474 139.025C400.439 139.136 400.432 139.253 400.452 139.367L401.051 142.836C401.073 142.967 401.058 143.101 401.007 143.224C400.957 143.346 400.873 143.452 400.766 143.529C400.659 143.607 400.532 143.653 400.4 143.662C400.268 143.671 400.136 143.643 400.019 143.581L396.912 141.947C396.812 141.892 396.699 141.864 396.585 141.864C396.471 141.864 396.358 141.892 396.258 141.947L393.15 143.581C393.033 143.643 392.902 143.671 392.77 143.662C392.638 143.653 392.511 143.607 392.404 143.529C392.297 143.452 392.213 143.346 392.163 143.224C392.112 143.101 392.097 142.967 392.118 142.836L392.718 139.367C392.734 139.252 392.724 139.135 392.687 139.025C392.65 138.915 392.589 138.815 392.507 138.733L389.988 136.275C389.893 136.182 389.827 136.064 389.796 135.935C389.764 135.806 389.77 135.671 389.811 135.545C389.853 135.419 389.929 135.307 390.031 135.222C390.132 135.137 390.256 135.082 390.387 135.063L393.861 134.563C393.974 134.545 394.081 134.5 394.174 134.433C394.267 134.365 394.342 134.276 394.393 134.174L395.958 131.004C396.017 130.887 396.108 130.789 396.22 130.721C396.331 130.652 396.46 130.616 396.59 130.616C396.721 130.616 396.85 130.652 396.961 130.721C397.073 130.789 397.163 130.887 397.223 131.004Z" fill="#F8ED9A"/>
<path d="M413.758 131.004L415.311 134.174C415.365 134.274 415.441 134.361 415.534 134.429C415.626 134.496 415.732 134.542 415.844 134.563L419.328 135.063C419.459 135.083 419.581 135.139 419.681 135.225C419.781 135.311 419.856 135.423 419.896 135.549C419.937 135.675 419.941 135.809 419.909 135.938C419.878 136.066 419.811 136.183 419.717 136.275L417.198 138.733C417.117 138.815 417.057 138.916 417.022 139.026C416.987 139.136 416.979 139.253 416.998 139.367L417.597 142.836C417.619 142.967 417.603 143.101 417.553 143.224C417.502 143.346 417.419 143.452 417.312 143.529C417.204 143.607 417.078 143.653 416.946 143.662C416.814 143.671 416.682 143.643 416.565 143.581L413.458 141.947C413.355 141.892 413.241 141.864 413.125 141.864C413.009 141.864 412.895 141.892 412.792 141.947L409.685 143.581C409.568 143.643 409.436 143.671 409.304 143.662C409.173 143.653 409.046 143.607 408.939 143.529C408.831 143.452 408.748 143.346 408.697 143.224C408.647 143.101 408.632 142.967 408.653 142.836L409.252 139.367C409.269 139.252 409.258 139.135 409.222 139.025C409.185 138.915 409.123 138.815 409.041 138.733L406.522 136.275C406.428 136.182 406.361 136.064 406.33 135.935C406.299 135.806 406.305 135.671 406.346 135.545C406.388 135.419 406.464 135.307 406.565 135.222C406.667 135.137 406.791 135.082 406.922 135.063L410.395 134.563C410.509 134.545 410.616 134.5 410.709 134.433C410.801 134.365 410.876 134.276 410.928 134.174L412.493 131.004C412.552 130.887 412.643 130.789 412.754 130.721C412.866 130.652 412.994 130.616 413.125 130.616C413.256 130.616 413.384 130.652 413.496 130.721C413.608 130.789 413.698 130.887 413.758 131.004Z" fill="#F8ED9A"/>
<path d="M430.292 131.004L431.846 134.174C431.9 134.276 431.978 134.364 432.072 134.432C432.166 134.499 432.275 134.544 432.389 134.563L435.863 135.063C435.994 135.082 436.117 135.137 436.219 135.222C436.321 135.307 436.397 135.419 436.438 135.545C436.48 135.671 436.486 135.806 436.454 135.935C436.423 136.064 436.357 136.182 436.262 136.275L433.743 138.733C433.661 138.815 433.599 138.915 433.563 139.025C433.526 139.135 433.516 139.252 433.532 139.367L434.132 142.836C434.153 142.967 434.138 143.101 434.087 143.224C434.037 143.346 433.953 143.452 433.846 143.529C433.739 143.607 433.612 143.653 433.48 143.662C433.348 143.671 433.216 143.643 433.1 143.581L429.992 141.947C429.89 141.892 429.776 141.864 429.659 141.864C429.543 141.864 429.429 141.892 429.327 141.947L426.175 143.581C426.058 143.643 425.926 143.671 425.794 143.662C425.663 143.653 425.536 143.607 425.429 143.529C425.321 143.452 425.238 143.346 425.187 143.224C425.137 143.101 425.122 142.967 425.143 142.836L425.742 139.367C425.762 139.252 425.752 139.134 425.716 139.024C425.679 138.913 425.616 138.813 425.531 138.733L423.012 136.275C422.918 136.182 422.851 136.064 422.82 135.935C422.789 135.806 422.795 135.671 422.836 135.545C422.878 135.419 422.954 135.307 423.055 135.222C423.157 135.137 423.281 135.082 423.412 135.063L426.896 134.563C427.008 134.542 427.114 134.496 427.207 134.429C427.299 134.361 427.375 134.274 427.429 134.174L428.983 131.004C429.037 130.875 429.128 130.765 429.244 130.687C429.361 130.61 429.497 130.568 429.637 130.568C429.777 130.568 429.914 130.61 430.03 130.687C430.147 130.765 430.238 130.875 430.292 131.004Z" fill="#F8ED9A"/>
<path d="M446.827 131.004L448.369 134.162C448.421 134.265 448.496 134.354 448.588 134.422C448.681 134.489 448.788 134.534 448.902 134.552L452.375 135.052C452.511 135.063 452.642 135.114 452.75 135.198C452.858 135.281 452.94 135.394 452.986 135.524C453.032 135.653 453.039 135.792 453.008 135.926C452.976 136.059 452.907 136.181 452.808 136.275L450.289 138.733C450.207 138.815 450.145 138.915 450.109 139.025C450.072 139.135 450.062 139.252 450.078 139.367L450.677 142.836C450.699 142.967 450.683 143.101 450.633 143.224C450.582 143.346 450.499 143.452 450.392 143.529C450.284 143.607 450.158 143.653 450.026 143.662C449.894 143.671 449.762 143.643 449.645 143.581L446.527 141.947C446.424 141.892 446.31 141.864 446.194 141.864C446.078 141.864 445.964 141.892 445.861 141.947L442.754 143.581C442.637 143.643 442.505 143.671 442.373 143.662C442.242 143.653 442.115 143.607 442.008 143.529C441.9 143.452 441.817 143.346 441.766 143.224C441.716 143.101 441.701 142.967 441.722 142.836L442.321 139.367C442.34 139.253 442.332 139.136 442.297 139.026C442.262 138.916 442.202 138.815 442.121 138.733L439.602 136.275C439.508 136.183 439.441 136.066 439.41 135.938C439.378 135.809 439.383 135.675 439.423 135.549C439.463 135.423 439.538 135.311 439.638 135.225C439.738 135.139 439.861 135.083 439.991 135.063L443.475 134.563C443.587 134.542 443.693 134.496 443.786 134.429C443.878 134.361 443.954 134.274 444.008 134.174L445.562 131.004C445.621 130.887 445.712 130.789 445.823 130.721C445.935 130.652 446.063 130.616 446.194 130.616C446.325 130.616 446.453 130.652 446.565 130.721C446.677 130.789 446.767 130.887 446.827 131.004Z" fill="white"/>
<path d="M469.331 136.275C469.426 136.182 469.492 136.064 469.523 135.935C469.555 135.806 469.549 135.671 469.508 135.545C469.466 135.419 469.39 135.307 469.288 135.222C469.186 135.137 469.063 135.082 468.932 135.063L465.458 134.552C465.345 134.538 465.237 134.496 465.144 134.43C465.051 134.364 464.976 134.276 464.926 134.174L463.372 131.015C463.328 130.923 463.263 130.843 463.182 130.781C463.101 130.719 463.006 130.678 462.906 130.66C462.847 130.649 462.787 130.649 462.729 130.66C462.556 130.667 462.392 130.734 462.262 130.849C462.193 130.906 462.136 130.978 462.096 131.06L460.576 134.162C460.521 134.262 460.445 134.348 460.353 134.413C460.261 134.479 460.155 134.522 460.043 134.541L456.57 135.052C456.433 135.063 456.303 135.114 456.195 135.198C456.086 135.281 456.005 135.394 455.959 135.524C455.913 135.653 455.906 135.792 455.937 135.926C455.969 136.059 456.038 136.181 456.137 136.275L458.667 138.733C458.747 138.814 458.807 138.912 458.841 139.02C458.876 139.129 458.885 139.243 458.867 139.356L458.279 142.836C458.254 142.967 458.267 143.101 458.316 143.224C458.365 143.347 458.447 143.454 458.554 143.532C458.661 143.61 458.788 143.656 458.92 143.665C459.052 143.674 459.183 143.645 459.3 143.581L462.274 142.014L462.418 141.936C462.519 141.889 462.628 141.862 462.74 141.858C462.855 141.86 462.968 141.886 463.073 141.936L466.18 143.581C466.297 143.643 466.428 143.671 466.56 143.662C466.692 143.653 466.819 143.607 466.926 143.529C467.033 143.452 467.117 143.346 467.167 143.224C467.218 143.101 467.233 142.967 467.212 142.836L466.624 139.356C466.603 139.243 466.61 139.128 466.645 139.019C466.68 138.91 466.741 138.812 466.823 138.733L469.331 136.275Z" fill="white"/>
<path d="M167.787 155.953C171.393 140.462 161.785 124.975 146.326 121.361C130.868 117.748 115.413 127.377 111.808 142.868C108.202 158.359 117.81 173.846 133.269 177.459C148.727 181.073 164.182 171.444 167.787 155.953Z" fill="#F5EDE0"/>
<path d="M150.759 143.559C150.761 141.897 150.387 140.257 149.664 138.761C148.942 137.265 147.89 135.953 146.589 134.923C145.287 133.893 143.769 133.173 142.15 132.816C140.53 132.459 138.851 132.475 137.238 132.862C135.626 133.25 134.122 133.999 132.84 135.053C131.558 136.108 130.531 137.439 129.837 138.949C129.143 140.458 128.8 142.106 128.834 143.767C128.867 145.429 129.276 147.061 130.03 148.541L130.119 148.708C130.166 148.778 130.207 148.853 130.241 148.93L139.806 166.256L149.383 148.897L149.483 148.73V148.641C150.311 147.075 150.749 145.332 150.759 143.559ZM139.795 147.107C138.931 147.107 138.085 146.85 137.366 146.37C136.646 145.89 136.084 145.207 135.751 144.408C135.418 143.608 135.328 142.728 135.492 141.877C135.657 141.027 136.069 140.244 136.677 139.628C137.284 139.011 138.06 138.589 138.906 138.413C139.753 138.237 140.633 138.316 141.434 138.64C142.236 138.964 142.925 139.518 143.413 140.233C143.901 140.948 144.167 141.792 144.178 142.658C144.187 143.24 144.08 143.818 143.864 144.358C143.647 144.898 143.326 145.39 142.918 145.804C142.51 146.218 142.023 146.546 141.487 146.77C140.951 146.994 140.376 147.108 139.795 147.107Z" fill="#6F522F"/>
<path d="M181.775 246.179H113.296V300.658H181.775V246.179Z" fill="#5A7BCC"/>
<path opacity="0.32" d="M162.832 252.05H130.862V284.188H162.832V252.05Z" fill="white"/>
<path d="M156.474 258.011H137.054V277.65H156.474V258.011Z" fill="#E1F1FC"/>
<path d="M163.798 288.414H129.885V251.094H163.776L163.798 288.414ZM131.816 286.513H161.878V253.018H131.816V286.513Z" fill="#2745AD"/>
<path d="M166.894 281.853H126.812V290.727H166.894V281.853Z" fill="#2745AD"/>
<path d="M166.894 290.727H126.812V294.942H166.894V290.727Z" fill="#5071BC"/>
<path opacity="0.72" d="M155.85 257.255L137.38 272.946L138.643 274.439L157.113 258.748L155.85 257.255Z" fill="white"/>
<path opacity="0.72" d="M137.531 269.799L136.577 268.675L149.505 257.677L150.459 258.8L137.531 269.799Z" fill="white"/>
<path d="M157.428 278.606H136.1V257.055H157.428V278.606ZM138.02 276.693H155.52V258.967H138.02V276.693Z" fill="#2745AD"/>
<path d="M181.764 237.193H107.481V246.179H181.764V237.193Z" fill="#2745AD"/>
<path d="M181.775 246.179H178.69V301.614H181.775V246.179Z" fill="#2745AD"/>
<path d="M181.775 326.602H100.934V376.444H181.775V326.602Z" fill="#5A7BCC"/>
<path d="M131.75 334.275H112.33V353.914H131.75V334.275Z" fill="#E1F1FC"/>
<path opacity="0.72" d="M131.129 333.518L112.659 349.209L113.922 350.702L132.392 335.011L131.129 333.518Z" fill="white"/>
<path opacity="0.72" d="M112.807 346.063L111.853 344.939L124.781 333.941L125.735 335.064L112.807 346.063Z" fill="white"/>
<path d="M132.704 354.87H111.376V333.307H132.704V354.87ZM113.296 352.957H130.795V335.231H113.296V352.957Z" fill="#2745AD"/>
<path d="M167.005 334.275H147.585V353.914H167.005V334.275Z" fill="#E1F1FC"/>
<path opacity="0.72" d="M166.388 333.513L147.918 349.204L149.181 350.697L167.651 335.006L166.388 333.513Z" fill="white"/>
<path opacity="0.72" d="M148.062 346.063L147.108 344.939L160.036 333.941L160.99 335.064L148.062 346.063Z" fill="white"/>
<path d="M167.959 354.87H146.631V333.307H167.959V354.87ZM148.54 352.957H166.039V335.231H148.54V352.957Z" fill="#2745AD"/>
<path d="M181.775 300.246L113.295 300.658L97.6931 316.571H181.775V300.246Z" fill="#2745AD"/>
<path d="M181.775 316.571H97.6931V326.602H181.775V316.571Z" fill="#2745AD"/>
<path d="M181.775 326.602H178.69V376.444H181.775V326.602Z" fill="#2745AD"/>
<path d="M374.974 376.444H455.815V326.602H374.974V376.444Z" fill="#5A7BCC"/>
<path d="M424.999 353.903H444.418V334.264H424.999V353.903Z" fill="#E1F1FC"/>
<path opacity="0.72" d="M425.641 333.558L424.378 335.051L442.848 350.742L444.111 349.249L425.641 333.558Z" fill="white"/>
<path opacity="0.72" d="M443.941 346.063L444.896 344.939L431.968 333.941L431.013 335.064L443.941 346.063Z" fill="white"/>
<path d="M424.044 333.307H445.373V354.87H424.044V333.307ZM443.464 335.231H425.953V352.957H443.464V335.231Z" fill="#2745AD"/>
<path d="M389.755 353.903H409.174V334.264H389.755V353.903Z" fill="#E1F1FC"/>
<path opacity="0.72" d="M390.381 333.562L389.118 335.055L407.588 350.746L408.851 349.253L390.381 333.562Z" fill="white"/>
<path opacity="0.72" d="M408.697 346.063L409.641 344.939L396.713 333.941L395.769 335.064L408.697 346.063Z" fill="white"/>
<path d="M388.789 333.307H410.129V354.87H388.789V333.307ZM408.209 335.231H390.665V352.957H408.165L408.209 335.231Z" fill="#2745AD"/>
<path d="M374.974 300.246L443.453 300.658L459.055 316.571H374.974V300.246Z" fill="#2745AD"/>
<path d="M374.985 326.602H459.066V316.571H374.985V326.602Z" fill="#2745AD"/>
<path d="M378.059 326.602H374.974V376.444H378.059V326.602Z" fill="#2745AD"/>
<path d="M374.985 300.658H443.464V246.179H374.985V300.658Z" fill="#5A7BCC"/>
<path d="M374.985 246.19H449.268V237.205H374.985V246.19Z" fill="#2745AD"/>
<path opacity="0.32" d="M426.108 252.05H394.138V284.188H426.108V252.05Z" fill="white"/>
<path d="M419.75 258.011H400.33V277.65H419.75V258.011Z" fill="#E1F1FC"/>
<path d="M427.074 288.414H393.184V251.094H427.074V288.414ZM395.103 286.513H425.165V253.018H395.103V286.513Z" fill="#2745AD"/>
<path d="M430.17 281.853H390.088V290.727H430.17V281.853Z" fill="#2745AD"/>
<path d="M430.17 290.727H390.088V294.942H430.17V290.727Z" fill="#5071BC"/>
<path opacity="0.72" d="M419.115 257.244L400.645 272.935L401.908 274.428L420.378 258.737L419.115 257.244Z" fill="white"/>
<path opacity="0.72" d="M400.807 269.799L399.853 268.675L412.781 257.677L413.735 258.8L400.807 269.799Z" fill="white"/>
<path d="M420.704 278.606H399.376V257.055H420.704V278.606ZM401.284 276.693H418.795V258.967H401.284V276.693Z" fill="#2745AD"/>
<path d="M378.059 246.179H374.974V301.614H378.059V246.179Z" fill="#2745AD"/>
<path d="M374.974 217.677H181.775V376.444H374.974V217.677Z" fill="#5A7BCC"/>
<path d="M378.059 300.658H178.69V309.254H378.059V300.658Z" fill="#2745AD"/>
<path d="M378.059 209.081H178.69V217.677H378.059V209.081Z" fill="#2745AD"/>
<path d="M374.974 200.674H181.775V209.081H374.974V200.674Z" fill="#5A7BCC"/>
<path d="M226.263 176.298H325.548C327.102 176.292 328.642 176.594 330.08 177.186C331.517 177.778 332.824 178.648 333.925 179.748C335.026 180.847 335.9 182.153 336.496 183.592C337.092 185.03 337.399 186.572 337.399 188.13V206.579H214.467V188.13C214.467 184.994 215.709 181.986 217.921 179.767C220.133 177.549 223.133 176.301 226.263 176.298Z" fill="#5A7BCC"/>
<path d="M245.427 182.527V195.477H241.764V190.426H236.769V195.477H233.106V182.527H236.769V187.392H241.764V182.527H245.427ZM254.542 195.736C253.173 195.736 251.939 195.446 250.842 194.866C249.756 194.286 248.899 193.485 248.27 192.461C247.653 191.437 247.345 190.284 247.345 189.002C247.345 187.719 247.653 186.566 248.27 185.542C248.899 184.518 249.756 183.717 250.842 183.137C251.939 182.557 253.173 182.268 254.542 182.268C255.911 182.268 257.138 182.557 258.223 183.137C259.321 183.717 260.178 184.518 260.795 185.542C261.424 186.566 261.738 187.719 261.738 189.002C261.738 190.284 261.424 191.437 260.795 192.461C260.178 193.485 259.321 194.286 258.223 194.866C257.138 195.446 255.911 195.736 254.542 195.736ZM254.542 192.702C255.195 192.702 255.787 192.547 256.318 192.239C256.848 191.931 257.267 191.499 257.576 190.944C257.884 190.377 258.038 189.729 258.038 189.002C258.038 188.274 257.884 187.633 257.576 187.078C257.267 186.51 256.848 186.072 256.318 185.764C255.787 185.456 255.195 185.302 254.542 185.302C253.888 185.302 253.296 185.456 252.766 185.764C252.235 186.072 251.816 186.51 251.508 187.078C251.199 187.633 251.045 188.274 251.045 189.002C251.045 189.729 251.199 190.377 251.508 190.944C251.816 191.499 252.235 191.931 252.766 192.239C253.296 192.547 253.888 192.702 254.542 192.702ZM266.232 185.431H262.255V182.527H273.854V185.431H269.895V195.477H266.232V185.431ZM285.616 192.646V195.477H275.219V182.527H285.376V185.357H278.845V187.54H284.599V190.278H278.845V192.646H285.616ZM287.649 182.527H291.312V192.572H297.491V195.477H287.649V182.527Z" fill="white"/>
<path opacity="0.32" d="M230.524 315.615H198.554V347.753H230.524V315.615Z" fill="white"/>
<path d="M224.177 321.564H204.757V341.203H224.177V321.564Z" fill="#E1F1FC"/>
<path d="M231.49 351.968H197.577V314.658H231.467L231.49 351.968ZM199.519 350.055H229.581V316.538H199.519V350.055Z" fill="#2745AD"/>
<path d="M234.585 345.406H194.503V354.281H234.585V345.406Z" fill="#2745AD"/>
<path d="M234.585 354.281H194.503V358.495H234.585V354.281Z" fill="#5071BC"/>
<path opacity="0.72" d="M223.546 320.797L205.076 336.488L206.339 337.981L224.809 322.29L223.546 320.797Z" fill="white"/>
<path opacity="0.72" d="M205.223 333.352L204.28 332.24L217.208 321.242L218.151 322.354L205.223 333.352Z" fill="white"/>
<path d="M225.131 342.17H203.792V320.608H225.131V342.17ZM205.711 340.247H223.211V322.521H205.711V340.247Z" fill="#2745AD"/>
<path opacity="0.32" d="M356.664 236.237H324.693V279.562H356.664V236.237Z" fill="white"/>
<path d="M350.316 242.198H330.896V273.024H350.316V242.198Z" fill="#E1F1FC"/>
<path d="M357.629 283.788H323.739V235.281H357.629V283.788ZM325.659 281.864H355.72V237.193H325.659V281.864Z" fill="#3547AB"/>
<path d="M360.725 277.227H320.643V286.101H360.725V277.227Z" fill="#2745AD"/>
<path d="M360.725 286.09H320.643V290.305H360.725V286.09Z" fill="#5071BC"/>
<path opacity="0.72" d="M349.69 241.464L331.217 257.152L332.48 258.645L350.952 242.958L349.69 241.464Z" fill="white"/>
<path opacity="0.72" d="M331.362 253.985L330.419 252.862L343.347 241.864L344.29 242.987L331.362 253.985Z" fill="white"/>
<path d="M351.27 273.98H329.931V241.241H351.27V273.98ZM331.851 272.056H349.351V243.143H331.851V272.056Z" fill="#3547AB"/>
<path d="M350.316 256.654H330.896V258.567H350.316V256.654Z" fill="#3547AB"/>
<path opacity="0.32" d="M292.823 236.237H260.852V279.562H292.823V236.237Z" fill="white"/>
<path d="M286.464 242.198H267.044V273.024H286.464V242.198Z" fill="#E1F1FC"/>
<path d="M293.788 283.788H259.898V235.281H293.788V283.788ZM261.818 281.864H291.902V237.193H261.818V281.864Z" fill="#3547AB"/>
<path d="M296.884 277.227H256.802V286.101H296.884V277.227Z" fill="#2745AD"/>
<path d="M296.884 286.09H256.802V290.305H296.884V286.09Z" fill="#5071BC"/>
<path opacity="0.72" d="M285.841 241.466L267.369 257.153L268.631 258.646L287.104 242.959L285.841 241.466Z" fill="white"/>
<path opacity="0.72" d="M267.521 253.985L266.578 252.862L279.506 241.864L280.449 242.987L267.521 253.985Z" fill="white"/>
<path d="M287.463 273.98H266.09V241.241H287.463V273.98ZM268.01 272.056H285.51V243.143H268.01V272.056Z" fill="#3547AB"/>
<path d="M286.464 256.654H267.044V258.567H286.464V256.654Z" fill="#3547AB"/>
<path opacity="0.32" d="M230.524 236.237H198.554V279.562H230.524V236.237Z" fill="white"/>
<path d="M224.177 242.198H204.757V273.024H224.177V242.198Z" fill="#E1F1FC"/>
<path d="M231.49 283.788H197.577V235.281H231.467L231.49 283.788ZM199.519 281.864H229.581V237.193H199.519V281.864Z" fill="#3547AB"/>
<path d="M234.585 277.227H194.503V286.101H234.585V277.227Z" fill="#2745AD"/>
<path d="M234.585 286.09H194.503V290.305H234.585V286.09Z" fill="#5071BC"/>
<path opacity="0.72" d="M223.552 241.465L205.08 257.153L206.343 258.646L224.815 242.958L223.552 241.465Z" fill="white"/>
<path opacity="0.72" d="M205.223 253.985L204.28 252.862L217.208 241.864L218.151 242.987L205.223 253.985Z" fill="white"/>
<path d="M225.131 273.98H203.792V241.241H225.131V273.98ZM205.711 272.056H223.211V243.143H205.711V272.056Z" fill="#3547AB"/>
<path d="M224.177 256.654H204.757V258.567H224.177V256.654Z" fill="#3547AB"/>
<path opacity="0.32" d="M356.586 315.615H324.615V347.753H356.586V315.615Z" fill="white"/>
<path d="M350.227 321.564H330.808V341.203H350.227V321.564Z" fill="#E1F1FC"/>
<path d="M357.551 351.968H323.661V314.658H357.551V351.968ZM325.57 350.055H355.632V316.538H325.57V350.055Z" fill="#2745AD"/>
<path d="M360.647 345.406H320.565V354.281H360.647V345.406Z" fill="#2745AD"/>
<path d="M360.647 354.281H320.565V358.495H360.647V354.281Z" fill="#5071BC"/>
<path opacity="0.72" d="M349.601 320.804L331.131 336.495L332.394 337.988L350.864 322.297L349.601 320.804Z" fill="white"/>
<path opacity="0.72" d="M331.285 333.352L330.33 332.24L343.258 321.242L344.213 322.354L331.285 333.352Z" fill="white"/>
<path d="M351.182 342.17H329.853V320.608H351.182V342.17ZM331.762 340.247H349.273V322.521H331.762V340.247Z" fill="#2745AD"/>
<path d="M303.642 327.302H251.664V376.455H303.642V327.302Z" fill="#3A3A3C"/>
<path d="M278.374 376.444V328.993" stroke="#221327" stroke-miterlimit="10"/>
<path d="M272.116 352.724C273.219 352.724 274.113 351.828 274.113 350.722C274.113 349.617 273.219 348.72 272.116 348.72C271.012 348.72 270.118 349.617 270.118 350.722C270.118 351.828 271.012 352.724 272.116 352.724Z" fill="#221327"/>
<path d="M284.633 352.724C285.736 352.724 286.63 351.828 286.63 350.722C286.63 349.617 285.736 348.72 284.633 348.72C283.53 348.72 282.635 349.617 282.635 350.722C282.635 351.828 283.53 352.724 284.633 352.724Z" fill="#221327"/>
<path d="M303.931 300.658H251.298L246.481 322.198H308.747L303.931 300.658Z" fill="#2745AD"/>
<path d="M246.481 322.198H308.747V325.034C308.747 327.464 307.783 329.795 306.068 331.513C304.354 333.232 302.028 334.197 299.603 334.197H255.625C253.2 334.197 250.874 333.232 249.16 331.513C247.445 329.795 246.481 327.464 246.481 325.034V322.198Z" fill="#7395E1"/>
<path d="M256.902 324.133L257.689 326.568H260.242L258.178 328.07L258.966 330.494L256.902 328.993L254.849 330.494L255.637 328.07L253.573 326.568H256.114L256.902 324.133Z" fill="#F3EDE9"/>
<path d="M267.255 324.133L268.043 326.568H270.595L268.531 328.07L269.319 330.494L267.255 328.993L265.202 330.494L265.99 328.07L263.926 326.568H266.478L267.255 324.133Z" fill="#F3EDE9"/>
<path d="M277.62 324.133L278.408 326.568H280.949L278.896 328.07L279.673 330.494L277.62 328.993L275.556 330.494L276.344 328.07L274.28 326.568H276.832L277.62 324.133Z" fill="#F3EDE9"/>
<path d="M287.973 324.133L288.761 326.568H291.302L289.249 328.07L290.037 330.494L287.973 328.993L285.909 330.494L286.697 328.07L284.633 326.568H287.185L287.973 324.133Z" fill="#F3EDE9"/>
<path d="M298.327 324.133L299.115 326.568H301.656L299.603 328.07L300.391 330.494L298.327 328.993L296.263 330.494L297.051 328.07L294.987 326.568H297.539L298.327 324.133Z" fill="#F3EDE9"/>
<path d="M40 376.444H520" stroke="#384AAE" stroke-miterlimit="10"/>
<path d="M282.491 255.019H247.214C245.783 255.022 244.411 255.594 243.4 256.61C242.389 257.625 241.821 259.001 241.821 260.435V305.284C241.82 305.66 241.934 306.028 242.149 306.337C242.363 306.646 242.667 306.881 243.02 307.011C243.372 307.141 243.756 307.159 244.12 307.063C244.483 306.967 244.808 306.761 245.05 306.474L249.222 301.559H282.513C283.223 301.56 283.925 301.421 284.581 301.15C285.236 300.879 285.832 300.482 286.334 299.98C286.836 299.478 287.234 298.881 287.506 298.225C287.778 297.568 287.918 296.865 287.918 296.154V260.435C287.918 259.722 287.777 259.016 287.504 258.357C287.231 257.699 286.831 257.101 286.327 256.598C285.823 256.095 285.224 255.696 284.566 255.425C283.908 255.154 283.203 255.017 282.491 255.019Z" fill="#F5EDE0"/>
<path d="M260.83 288.325C265.48 288.403 270.196 288.459 274.479 288.17C275.833 288.07 276.998 285.945 275.356 285.234C276.089 284.975 276.696 284.446 277.054 283.755C277.129 283.575 277.167 283.381 277.167 283.186C277.166 282.991 277.126 282.798 277.05 282.619C276.973 282.439 276.861 282.277 276.721 282.142C276.58 282.006 276.414 281.901 276.233 281.831C277.842 282.231 278.452 279.662 277.22 278.828C277.924 278.273 278.408 277.485 278.585 276.604C278.654 276.178 278.597 275.74 278.422 275.345C278.246 274.95 277.96 274.615 277.597 274.38C277.069 274.154 276.495 274.055 275.922 274.091H270.118C270.64 271.055 270.795 267.752 269.253 265.084C268.798 264.283 267.544 263.315 266.556 263.971C265.568 264.628 265.89 265.984 265.935 266.896C266.006 268.793 265.55 270.672 264.617 272.323C263.685 273.975 262.312 275.334 260.652 276.248C260.652 276.248 260.83 284.222 260.83 288.325Z" fill="#6F522F"/>
<path d="M259.121 276.171H252.085V288.303H259.121V276.171Z" fill="#6F522F"/>
<path d="M231.501 332.94C232.61 332.94 241.81 330.094 241.81 330.094L244.373 327.925C245.825 326.696 247.666 326.022 249.567 326.024H255.503C255.754 326.024 255.994 326.123 256.17 326.3C256.347 326.478 256.447 326.718 256.447 326.969C256.446 327.173 256.38 327.372 256.258 327.536C256.136 327.701 255.965 327.821 255.77 327.881L244.185 333.063L232.311 339.112L231.501 332.94Z" fill="#E4BB9E"/>
<path d="M195.868 304.305C195.868 304.305 194.137 315.303 208.485 338.534C208.485 338.534 213.934 346.719 216.442 346.641C220.559 346.519 234.197 342.904 240.755 338.434L239.646 329.538L218.661 333.419L215.243 316.037C214.678 312.824 213.335 309.165 211.093 307.241C211.082 307.241 202.016 297.8 195.868 304.305Z" fill="#F8ED9A"/>
<path d="M218.661 333.419C217.471 334.515 216.577 335.896 216.065 337.433" stroke="#DED078" stroke-miterlimit="10"/>
<path d="M195.48 302.381C192.704 303.063 190.121 304.374 187.929 306.214C185.738 308.053 183.997 310.371 182.84 312.99C182.84 312.99 181.908 327.981 182.84 358.718H212.536C212.536 358.718 213.035 309.543 205.123 303.115L195.48 302.381Z" fill="#F8ED9A"/>
<path d="M212.303 343.516C212.303 343.516 211.493 328.503 210.183 317.772" stroke="#DED078" stroke-miterlimit="10"/>
<path d="M168.858 384.851C167.852 384.267 167.042 383.397 166.529 382.351C166.016 381.306 165.824 380.131 165.977 378.976C166.13 377.821 166.621 376.738 167.388 375.862C168.155 374.987 169.164 374.359 170.287 374.058C171.41 373.757 172.597 373.796 173.698 374.17C174.799 374.545 175.764 375.238 176.472 376.162C177.18 377.086 177.599 378.2 177.676 379.362C177.753 380.525 177.484 381.684 176.903 382.693C176.121 384.048 174.835 385.036 173.326 385.44C171.818 385.845 170.211 385.633 168.858 384.851Z" fill="#E4BB9E"/>
<path d="M176.082 363.733L173.985 375.932L167.549 375.654L168.736 362.943" fill="#E4BB9E"/>
<path d="M188.389 305.751C188.389 305.751 167.615 317.528 164.675 371.239L177.203 370.461C177.203 370.461 179.223 334.019 192.006 318.517C192.029 318.517 197.455 312.379 188.389 305.751Z" fill="#F8ED9A"/>
<path d="M182.419 339.112C182.419 339.112 185.348 328.604 188.411 323.544" stroke="#DED078" stroke-miterlimit="10"/>
<path d="M194.47 302.226V290.683H202.726V302.215C202.717 303.311 202.276 304.359 201.498 305.13C200.72 305.901 199.67 306.332 198.576 306.329C197.491 306.323 196.451 305.89 195.683 305.122C194.914 304.354 194.479 303.313 194.47 302.226Z" fill="#E4BB9E"/>
<path d="M194.248 291.306C194.248 291.306 195.125 301.181 202.748 301.025V296.076L194.248 291.306Z" fill="#D8AC91"/>
<path d="M207.176 278.473C207.176 278.473 214.467 281.075 209.218 287.369L207.176 282.976V278.473Z" fill="#26152C"/>
<path d="M201.273 299.323C205.711 299.323 209.307 296.654 209.307 292.229V283.388C209.304 282.46 208.935 281.57 208.28 280.914C207.625 280.258 206.737 279.888 205.811 279.885H196.734C195.808 279.888 194.92 280.258 194.265 280.914C193.61 281.57 193.241 282.46 193.238 283.388V290.961C193.238 295.409 197.577 299.323 201.273 299.323Z" fill="#E4BB9E"/>
<path d="M194.548 287.981C195.23 287.601 195.83 287.089 196.313 286.475C196.795 285.86 197.15 285.155 197.357 284.401C197.564 283.646 197.618 282.859 197.517 282.083C197.415 281.308 197.161 280.56 196.767 279.885H192.251C191.824 279.817 191.386 279.875 190.992 280.053C190.597 280.231 190.264 280.52 190.031 280.886C189.055 282.198 191.463 287.981 191.463 287.981H194.548Z" fill="#3A3A3C"/>
<path d="M192.572 291.873C194.16 291.873 195.446 290.583 195.446 288.992C195.446 287.402 194.16 286.112 192.572 286.112C190.985 286.112 189.698 287.402 189.698 288.992C189.698 290.583 190.985 291.873 192.572 291.873Z" fill="#E4BB9E"/>
<path d="M196.279 284.8C196.279 284.8 195.713 290.683 196.945 292.451C198.176 294.219 199.464 293.051 204.147 292.54C208.829 292.028 209.307 294.286 209.307 294.286C209.307 294.286 208.874 299.579 202.771 299.579C198.021 299.579 193.227 298.245 194.514 290.683C195.802 283.121 192.217 279.885 192.217 279.885L196.279 284.8Z" fill="#3A3A3C"/>
<path d="M190.819 280.952C190.753 280.752 189.077 278.495 192.905 275.982C192.905 275.982 206.643 267.853 211.415 276.449C214.944 282.81 208.397 282.81 204.646 281.831C201.725 281.178 198.699 281.155 195.768 281.764L190.819 280.952Z" fill="#3A3A3C"/>
<path d="M194.47 302.659C193.225 302.979 192.035 303.485 190.941 304.161C190.941 304.161 192.861 307.908 199.508 307.263C200.609 307.173 201.654 306.737 202.493 306.018C202.965 305.6 203.342 305.086 203.6 304.511C203.859 303.936 203.992 303.312 203.991 302.682C203.991 302.682 203.525 301.903 201.272 302.037L194.47 302.248" fill="#E4BB9E"/>
<path d="M186.902 448.482L184.161 457.467L190.697 460.659L193.649 450.784L186.902 448.482Z" fill="#E4BB9E"/>
<path d="M184.161 457.467C184.161 457.467 181.254 457.467 178.157 462.749L185.371 468.888H197.111C197.111 468.888 195.813 464.306 190.087 464.84L190.708 460.681L184.161 457.467Z" fill="#3A3A3C"/>
<path d="M212.536 358.718C212.161 377.444 209.288 396.035 203.991 413.997L193.649 453.497H179.156L192.217 387.709L190.941 358.796L212.536 358.718Z" fill="#633072"/>
<path d="M204.568 451.596L206.111 461.115H212.536L211.404 450.784L204.568 451.596Z" fill="#E4BB9E"/>
<path d="M206.111 461.104L203.891 468.888H224.587C224.587 468.888 221.391 464.807 214.067 465.007L212.536 461.104H206.111Z" fill="#3A3A3C"/>
<path d="M182.84 358.718C182.84 358.718 180.81 368.848 184.105 390.489C187.401 412.129 198.476 455.132 198.476 455.132L216.054 456.344L199.131 358.718H182.84Z" fill="#633072"/>
<path d="M207.009 404.178L202.116 375.932L205.889 368.203" stroke="#50235E" stroke-width="0.78" stroke-miterlimit="10"/>
<path d="M187.934 410.595L195.846 445.112" stroke="#50235E" stroke-width="0.78" stroke-miterlimit="10"/>
<path d="M151.569 469.444H243.974" stroke="#384AAE" stroke-miterlimit="10"/>
<path d="M304.386 469.444H396.79" stroke="#384AAE" stroke-miterlimit="10"/>
<path d="M338.354 349.054L320.521 400.697C319.838 402.677 319.633 404.79 319.922 406.864C320.211 408.938 320.987 410.914 322.185 412.63L346.743 447.759L347.498 422.182L335.89 406.992L345.644 387.809L338.354 349.054Z" fill="#BC95EE"/>
<path d="M355.177 443.589L362.645 449.216L359.149 454.476L350.793 448.749L355.177 443.589Z" fill="#E4BB9E"/>
<path d="M362.645 449.216L370.157 451.64L358.905 468.621C358.905 468.621 357.307 463.784 361.457 457.879L359.149 454.431L362.645 449.216Z" fill="#3A3A3C"/>
<path d="M352.325 451.651L351.781 461.004H345.478L345.611 450.851L352.325 451.651Z" fill="#E4BB9E"/>
<path d="M351.825 461.004L353.967 468.621H333.582C333.582 468.621 336.722 464.618 343.924 464.818L345.478 461.004H351.825Z" fill="#3A3A3C"/>
<path d="M338.354 349.054L343.003 454.698L355.509 455.076L361.746 381.036C361.746 381.036 367.783 354.036 355.509 349.099L338.354 349.054Z" fill="#BC95EE"/>
<path d="M340.296 398.429L338.986 363.277" stroke="#906AC9" stroke-miterlimit="10"/>
<path d="M341.205 413.853L342.426 441.443" stroke="#906AC9" stroke-miterlimit="10"/>
<path d="M341.161 320.508L330.896 336.265L314.795 330.705C314.117 330.473 313.4 330.382 312.686 330.438L300.368 331.372C300.319 331.377 300.271 331.394 300.23 331.422C300.189 331.45 300.155 331.488 300.132 331.532C300.109 331.576 300.097 331.625 300.098 331.675C300.098 331.725 300.111 331.774 300.135 331.817C300.454 332.364 300.885 332.836 301.399 333.202C301.914 333.568 302.501 333.82 303.121 333.941C306.612 334.574 310.202 334.384 313.607 333.385L330.064 344.75C330.882 345.317 331.874 345.577 332.865 345.483C333.855 345.39 334.781 344.949 335.479 344.239L345.333 334.23L341.161 320.508Z" fill="#E4BB9E"/>
<path d="M355.376 306.963C359.237 311.082 361.497 316.452 361.746 322.098L355.509 349.021H338.353V331.461C338.353 331.461 332.805 323.066 338.353 316.338C343.902 309.61 348.818 303.794 348.818 303.794L352.802 305.262C353.78 305.622 354.661 306.204 355.376 306.963Z" fill="#633072"/>
<path d="M352.202 324.422C352.202 324.422 347.963 358.362 339.785 380.858H346.332C346.332 380.858 362.401 339.891 361.746 322.098L352.202 324.422Z" fill="#E4BB9E"/>
<path d="M338.32 386.463C337.329 385.89 336.53 385.036 336.024 384.008C335.518 382.98 335.327 381.824 335.477 380.688C335.626 379.551 336.109 378.484 336.863 377.623C337.618 376.761 338.611 376.143 339.716 375.847C340.821 375.551 341.989 375.59 343.072 375.96C344.155 376.329 345.104 377.013 345.8 377.923C346.495 378.833 346.905 379.93 346.978 381.074C347.051 382.218 346.784 383.359 346.21 384.35C345.831 385.009 345.326 385.586 344.724 386.048C344.122 386.511 343.435 386.85 342.702 387.046C341.97 387.242 341.205 387.292 340.453 387.192C339.701 387.092 338.977 386.844 338.32 386.463Z" fill="#E4BB9E"/>
<path d="M337.51 281.23C336.282 282.013 335.266 283.09 334.555 284.363C333.844 285.636 333.46 287.067 333.438 288.525C333.438 289.637 333.338 290.594 333.282 291.528L331.196 294.308C331.146 294.374 331.109 294.45 331.089 294.531C331.069 294.612 331.065 294.696 331.079 294.779C331.092 294.861 331.123 294.939 331.168 295.01C331.212 295.08 331.271 295.14 331.34 295.187L333.005 296.299C332.947 297.598 333.002 298.901 333.171 300.191C333.648 303.393 335.535 304.528 340.85 302.415C346.166 300.302 351.825 295.554 351.825 295.554C351.825 295.554 345.722 280.141 337.51 281.23Z" fill="#E4BB9E"/>
<path d="M349.761 297.21L352.913 305.729L345.489 312.067L340.983 300.269L349.761 297.21Z" fill="#E4BB9E"/>
<path d="M353.656 286.023C351.27 276.893 340.839 278.728 340.839 278.728C339.681 278.832 338.554 279.166 337.526 279.71C336.497 280.254 335.586 280.998 334.847 281.898C334.847 281.898 332.317 284.722 332.406 287.558L339.064 288.303H339.13L341.705 292.751L343.725 290.216L344.512 292.384C344.512 292.384 345.289 295.809 349.761 297.099C349.761 297.21 355.865 294.497 353.656 286.023Z" fill="#3A3A3C"/>
<path d="M347.109 292.584C347.098 293.135 346.924 293.669 346.61 294.12C346.295 294.571 345.854 294.919 345.342 295.118C344.831 295.318 344.272 295.361 343.735 295.242C343.199 295.123 342.71 294.848 342.331 294.45C341.951 294.052 341.698 293.551 341.603 293.009C341.508 292.467 341.576 291.909 341.797 291.405C342.019 290.902 342.385 290.476 342.848 290.181C343.312 289.886 343.852 289.736 344.401 289.749C345.135 289.766 345.832 290.074 346.34 290.606C346.847 291.137 347.124 291.849 347.109 292.584Z" fill="#E4BB9E"/>
<path d="M341.738 302.081C342.997 301.439 344.125 300.568 345.067 299.512L343.059 305.595L341.738 302.081Z" fill="#D8AC91"/>
<path d="M360.159 299.957C364.811 299.957 368.582 296.178 368.582 291.517C368.582 286.855 364.811 283.076 360.159 283.076C355.507 283.076 351.737 286.855 351.737 291.517C351.737 296.178 355.507 299.957 360.159 299.957Z" fill="#3A3A3C"/>
</g>
<defs>
<clipPath id="clip0_0_1">
<rect width="480" height="397" fill="white" transform="translate(40 73)"/>
</clipPath>
</defs>
</svg>
