<svg width="19" height="18" viewBox="0 0 19 18" fill="none" xmlns="http://www.w3.org/2000/svg">
<path d="M4.16667 8.16675H10.8333V9.83341H4.16667V12.3334L0 9.00008L4.16667 5.66675V8.16675ZM3.33273 14.0001H5.59029C6.76552 15.0373 8.30926 15.6667 10 15.6667C13.6819 15.6667 16.6667 12.682 16.6667 9.00008C16.6667 5.31818 13.6819 2.33341 10 2.33341C8.30926 2.33341 6.76552 2.96281 5.59029 4.00008H3.33273C4.85307 1.97601 7.27363 0.666748 10 0.666748C14.6023 0.666748 18.3333 4.39771 18.3333 9.00008C18.3333 13.6024 14.6023 17.3334 10 17.3334C7.27363 17.3334 4.85307 16.0242 3.33273 14.0001Z" fill="white"/>
</svg>
