<svg width="560" height="543" viewBox="0 0 560 543" fill="none" xmlns="http://www.w3.org/2000/svg">
<rect width="560" height="543" fill="#F5F5F5"/>
<rect width="1440" height="1102" transform="translate(-740 -168)" fill="#FDFCF9"/>
<rect width="560" height="543" rx="8" fill="#1B2A49"/>
<mask id="mask0_0_1" style="mask-type:luminance" maskUnits="userSpaceOnUse" x="57" y="48" width="447" height="447">
<path d="M116.003 145.097C116.003 145.097 172.664 135.971 189.861 96.441C216.164 35.9778 282.751 38.5728 317.35 69.0639C347.03 95.1976 367.938 95.4138 419.508 107.578C471.077 119.742 493.41 142.048 502.516 180.583C511.621 219.119 475.199 253.6 491.382 299.228C507.565 344.857 509.636 386.809 481.51 427.691C452.262 470.195 436.629 467.946 381.284 479.656C377.596 480.498 373.986 481.656 370.495 483.116C325.884 501.118 275.491 498.696 233.264 475.655C210.263 463.124 184.484 456.602 158.305 456.69C109.659 456.528 84.64 418.846 82.6118 386.409C80.5835 353.972 83.6906 337.872 70.4206 305.316C41.1295 233.316 61.3258 163.348 116.003 145.097Z" fill="white"/>
</mask>
<g mask="url(#mask0_0_1)">
<path d="M548.044 35.5777H42.1436V542.595H548.044V35.5777Z" fill="url(#paint0_linear_0_1)"/>
<path d="M548.044 35.5777H42.1436V542.595H548.044V35.5777Z" fill="url(#paint1_linear_0_1)"/>
<path d="M-14.1945 465.87C-14.1945 465.87 66.7201 428.026 149.717 457.76C232.714 487.495 285.028 415.354 308.676 404.109C340.6 388.918 368.801 383.825 430.588 434.989C492.374 486.154 577.108 447.121 593.291 430.891C609.474 414.662 590.863 299.272 590.863 299.272L548.044 35.5777H42.1437L-14.1945 465.87Z" fill="url(#paint2_linear_0_1)"/>
<path d="M2.11787 169.652C17.2219 145.335 40.9569 127.484 68.7807 120.845C86.9919 116.52 106.66 116.801 120.965 130.457C155.802 163.684 159.804 202.987 232.66 187.06C305.515 171.133 333.566 128.954 395.773 174.085C457.98 219.216 520.727 217.097 553.783 201.516C586.839 185.936 619.658 347.247 585.48 375.024C545.325 407.666 503.54 358.318 395.773 292.417C288.005 226.515 216.574 302.148 187.553 333.644C158.531 365.141 107.922 434.741 13.4891 426.004C-132.017 412.575 -39.688 237.089 2.11787 169.652Z" fill="url(#paint3_linear_0_1)"/>
<path d="M155.985 392.713C154.529 387.469 142.737 385.847 126.64 387.858C126.201 387.913 125.756 387.832 125.365 387.625C124.974 387.419 124.655 387.096 124.453 386.702C124.25 386.308 124.173 385.861 124.233 385.422C124.292 384.983 124.485 384.572 124.784 384.247C134.052 374.105 155.09 350.036 151.184 345.257C148.541 342.013 141.194 343.213 131.635 347.69C131.333 347.834 130.994 347.881 130.664 347.825C130.334 347.768 130.03 347.61 129.793 347.373C129.557 347.136 129.399 346.831 129.343 346.5C129.286 346.17 129.333 345.83 129.477 345.527C139.586 325.157 143.147 307.619 137.288 304.235C132.973 301.758 124.752 307.392 115.711 317.977C115.423 318.305 115.042 318.538 114.619 318.644C114.196 318.751 113.75 318.726 113.341 318.574C112.933 318.422 112.579 318.149 112.328 317.792C112.077 317.434 111.94 317.009 111.935 316.572V315.815C111.935 287.756 105.581 264.996 97.7374 264.996C89.8941 264.996 83.5504 287.702 83.5504 315.815V315.88C83.543 316.314 83.4051 316.737 83.1546 317.092C82.9041 317.447 82.5527 317.718 82.1461 317.869C81.7396 318.021 81.2968 318.047 80.8757 317.942C80.4545 317.838 80.0744 317.609 79.7851 317.285C71.0356 307.111 63.0412 301.769 58.866 304.235C52.997 307.576 56.568 325.113 66.7201 345.484C66.8643 345.787 66.9114 346.127 66.8548 346.457C66.7982 346.788 66.6408 347.093 66.4041 347.33C66.1675 347.567 65.8633 347.725 65.5335 347.781C65.2036 347.838 64.8644 347.791 64.5624 347.646C55.0037 343.17 47.6566 341.992 45.0134 345.214C40.2664 351.031 52.436 369.001 72.4381 386.074C72.6381 386.241 72.781 386.467 72.8469 386.719C72.9128 386.972 72.8985 387.239 72.8059 387.483C72.7132 387.727 72.5469 387.936 72.3301 388.081C72.1134 388.225 71.8569 388.299 71.5966 388.29C62.9009 388.074 41.5179 388.009 40.2125 392.691C38.1087 400.26 58.2726 412.489 85.2442 420.014C85.9421 420.26 86.6056 420.594 87.2185 421.009C90.4022 423.096 94.2672 423.871 98.0071 423.171H98.1473C101.879 423.888 105.742 423.137 108.936 421.074C109.558 420.637 110.237 420.287 110.953 420.036C137.925 412.51 158.089 400.281 155.985 392.713Z" fill="#5473BE"/>
<path d="M140.083 396.659L99.3233 407.245V391.102C99.325 389.461 99.7057 387.843 100.436 386.374C101.166 384.905 102.225 383.626 103.531 382.636L135.174 358.664C135.683 358.278 136.019 357.705 136.108 357.071C136.197 356.436 136.032 355.793 135.649 355.28L99.2909 382.798V372.256C99.2903 366.969 100.91 361.809 103.93 357.475L127.665 323.416C127.847 323.156 127.976 322.863 128.044 322.553C128.113 322.244 128.12 321.924 128.065 321.611C128.01 321.299 127.893 321 127.723 320.733C127.553 320.466 127.331 320.235 127.072 320.053L99.2909 359.919V291.508H96.9282V360.027L68.0147 320.021C67.4989 320.395 67.1524 320.96 67.0513 321.59C66.9502 322.221 67.1027 322.866 67.4753 323.383L92.0302 357.345C95.2104 361.749 96.9243 367.046 96.9282 372.483V382.809L59.1681 355.269C58.7965 355.789 58.6437 356.433 58.7426 357.065C58.8415 357.696 59.1842 358.263 59.6967 358.643L92.5696 382.657C93.9106 383.646 95.0001 384.938 95.7499 386.427C96.4996 387.917 96.8886 389.563 96.8851 391.232V407.223L58.7473 396.67C58.5786 397.287 58.6612 397.945 58.9768 398.501C59.2924 399.056 59.8152 399.463 60.4303 399.633L91.0376 408.11C92.7262 408.568 94.2177 409.569 95.2821 410.961C96.3466 412.352 96.925 414.055 96.9282 415.808V443.445H99.3341V415.927C99.3347 414.156 99.9218 412.434 101.003 411.033C102.085 409.632 103.6 408.631 105.311 408.185L138.367 399.6C138.984 399.438 139.51 399.037 139.832 398.485C140.154 397.934 140.244 397.277 140.083 396.659Z" fill="#6182D8"/>
<path d="M390.055 549.558C392.105 544.509 383.754 536.01 369.783 527.749C369.4 527.525 369.095 527.188 368.91 526.784C368.725 526.38 368.669 525.928 368.749 525.491C368.829 525.054 369.042 524.652 369.358 524.34C369.675 524.028 370.079 523.822 370.517 523.749C384.035 521.381 415.365 515.196 415.182 509.033C415.063 504.859 408.525 501.291 398.222 498.999C397.896 498.924 397.601 498.749 397.378 498.499C397.156 498.249 397.016 497.935 396.978 497.602C396.94 497.269 397.006 496.932 397.167 496.638C397.328 496.344 397.576 496.108 397.877 495.961C418.289 486.013 431.796 474.336 429.218 468.043C427.34 463.469 417.35 462.864 403.767 465.718C403.337 465.809 402.889 465.765 402.484 465.593C402.079 465.421 401.736 465.128 401.501 464.756C401.266 464.383 401.151 463.947 401.17 463.506C401.19 463.066 401.343 462.642 401.61 462.291L402.074 461.696C419.173 439.477 427.966 417.581 421.795 412.781C415.624 407.98 396.722 422.09 379.59 444.321V444.375C379.319 444.711 378.953 444.959 378.54 445.085C378.126 445.211 377.685 445.21 377.273 445.082C376.86 444.954 376.495 444.704 376.226 444.366C375.956 444.028 375.794 443.617 375.76 443.185C374.962 429.778 371.887 420.663 367.129 420.014C360.419 419.117 352.554 435.152 348.141 457.49C348.075 457.819 347.909 458.119 347.666 458.35C347.423 458.58 347.115 458.729 346.783 458.777C346.452 458.824 346.114 458.767 345.816 458.615C345.519 458.462 345.275 458.22 345.12 457.923C340.287 448.527 335.195 443.088 331.095 444.039C323.802 445.726 322.464 467.373 327.859 493.171C327.916 493.426 327.893 493.693 327.791 493.934C327.69 494.175 327.516 494.379 327.293 494.516C327.071 494.653 326.812 494.717 326.551 494.699C326.291 494.68 326.042 494.581 325.841 494.415C319.098 488.911 302.192 475.774 298.309 478.682C292.04 483.386 300.542 505.411 317.307 527.879C317.726 528.499 318.053 529.176 318.278 529.89C319.552 533.487 322.16 536.453 325.561 538.173H325.625C328.165 541.076 331.733 542.875 335.572 543.189C336.309 543.23 337.035 543.376 337.73 543.622C363.688 554.186 387.142 556.835 390.055 549.558Z" fill="#5473BE"/>
<path d="M375.026 542.93L336.306 526.365L346.145 513.585C347.145 512.285 348.432 511.235 349.905 510.518C351.379 509.801 352.998 509.437 354.636 509.455L394.306 509.844C394.622 509.847 394.937 509.787 395.23 509.668C395.524 509.549 395.791 509.372 396.017 509.149C396.242 508.926 396.422 508.661 396.545 508.368C396.668 508.075 396.732 507.761 396.733 507.444L351.205 507.011L357.678 498.653C360.896 494.472 365.317 491.381 370.344 489.798L409.798 477.342C410.1 477.247 410.38 477.094 410.623 476.89C410.866 476.686 411.066 476.437 411.212 476.156C411.359 475.874 411.448 475.567 411.476 475.251C411.503 474.935 411.468 474.617 411.373 474.314L365.112 488.89L406.799 434.719L404.889 433.249L363.17 487.506L364.648 438.147C364.332 438.137 364.017 438.189 363.721 438.301C363.425 438.413 363.154 438.582 362.924 438.799C362.694 439.016 362.508 439.276 362.378 439.565C362.248 439.854 362.176 440.166 362.166 440.482L360.915 482.402C360.739 487.843 358.851 493.088 355.52 497.388L349.231 505.573L336.144 460.626C335.533 460.809 335.018 461.226 334.711 461.786C334.404 462.347 334.33 463.006 334.504 463.621L345.897 502.762C346.366 504.366 346.449 506.059 346.14 507.701C345.83 509.344 345.137 510.89 344.117 512.212L334.407 524.873L310.672 493.171C310.419 493.362 310.205 493.601 310.044 493.874C309.883 494.147 309.777 494.45 309.733 494.765C309.689 495.079 309.707 495.399 309.787 495.706C309.867 496.014 310.006 496.302 310.197 496.556L329.261 521.997C330.324 523.398 330.895 525.112 330.885 526.872C330.876 528.632 330.286 530.339 329.207 531.728L312.366 553.613L314.276 555.083L331.041 533.242C332.118 531.839 333.63 530.835 335.34 530.388C337.049 529.942 338.858 530.079 340.481 530.777L371.887 544.206C372.472 544.451 373.131 544.455 373.719 544.216C374.307 543.977 374.777 543.515 375.026 542.93Z" fill="#6182D8"/>
<path d="M43.0823 319.588L57.6469 325.946C59.5349 324.173 61.3258 322.335 62.9441 320.453L60.4412 316.301L64.7566 318.323C82.4068 296.698 85.5463 269.127 84.0898 246.464L76.8938 244.766L83.5828 240.441C82.3695 228.058 79.7897 215.849 75.8905 204.036C75.8905 204.036 71.0356 247.134 48.7032 265.05C48.1314 265.515 47.6243 266.002 47.0201 266.478L49.0808 272.414L44.7653 268.564C19.0021 292.946 11.0185 340.013 22.4868 379.003C22.4868 379.003 32.0132 352.209 53.2991 330.217L43.0823 319.588Z" fill="url(#paint4_linear_0_1)"/>
<path d="M72.341 251.07C70.7551 265.515 66.062 280.188 57.0967 291.887C51.9505 298.623 46.2002 305.943 41.7661 313.09C31.5708 328.898 24.7632 347.095 23.1341 365.865C22.6486 369.92 22.5947 374.905 22.4868 378.981C22.2063 374.615 22.1667 370.236 22.3681 365.865C23.1233 346.749 29.7583 328.022 40.0615 312.03C45.3263 303.499 52.3173 295.379 58.305 287.367C65.7492 276.641 70.0107 263.915 72.3302 251.102L72.341 251.07Z" fill="#5473BE"/>
<path d="M475.965 425.669L491.587 428.588C493.032 426.426 494.338 424.263 495.524 422.047L492.148 418.576L496.798 419.571C509.151 394.54 506.022 366.947 499.538 345.192H492.148L497.693 339.418C493.744 327.628 488.509 316.311 482.082 305.673C482.082 305.673 487.023 348.771 469.265 371.272C468.812 371.845 468.38 372.439 467.949 373.034L471.282 378.343L466.126 375.597C446.533 405.158 449.306 452.819 469.222 488.219C469.222 488.219 472.458 459.977 488.307 433.757L475.965 425.669Z" fill="url(#paint5_linear_0_1)"/>
<path d="M489.116 352.317C490.81 366.752 489.526 382.106 483.42 395.567C479.913 403.287 475.943 411.71 473.225 419.679C466.848 437.379 464.292 456.647 466.902 475.331C467.345 479.374 468.413 484.251 469.222 488.241C467.963 484.037 466.936 479.767 466.147 475.449C462.598 456.636 464.874 436.946 471.326 418.998C474.562 409.504 479.536 400.022 483.571 390.885C488.426 378.754 489.72 365.39 489.116 352.382V352.317Z" fill="#5473BE"/>
<path d="M429.854 470.119L445.487 473.038C446.922 470.876 448.227 468.713 449.414 466.551L446.048 463.069L450.687 464.075C463.051 439.044 459.922 411.451 453.427 389.685H446.048L451.582 383.922C447.623 372.129 442.373 360.812 435.928 350.177C435.928 350.177 440.869 393.264 423.111 415.765C422.658 416.338 422.226 416.933 421.795 417.527L425.139 422.847L420.026 420.079C400.434 449.63 403.195 497.291 423.111 532.702C423.111 532.702 426.348 504.449 442.196 478.228L429.854 470.119Z" fill="url(#paint6_linear_0_1)"/>
<path d="M443.016 396.778C444.699 411.213 443.415 426.566 437.309 440.028C433.803 447.748 429.832 456.171 427.125 464.14C420.738 481.84 418.181 501.107 420.802 519.791C421.245 523.846 422.313 528.722 423.111 532.712C421.86 528.503 420.838 524.23 420.047 519.91C416.487 501.107 418.774 481.407 425.215 463.469C428.452 453.965 433.425 444.483 437.46 435.357C442.326 423.225 443.62 409.872 443.016 396.865V396.778Z" fill="#5473BE"/>
<path d="M129.294 461.166L144.927 464.086C146.362 461.923 147.667 459.761 148.854 457.598L145.477 454.073L150.127 455.079C162.48 430.048 159.351 402.455 152.856 380.689H145.477L151.012 374.926C147.052 363.133 141.802 351.816 135.357 341.181C135.357 341.181 140.309 384.247 122.551 406.769C122.098 407.342 121.667 407.937 121.235 408.531L124.579 413.851L119.466 411.083C99.8736 440.634 102.635 488.295 122.551 523.727C122.551 523.727 125.788 495.474 141.636 469.254L129.294 461.166Z" fill="url(#paint7_linear_0_1)"/>
<path d="M142.456 387.826C144.15 402.26 142.866 417.614 136.76 431.021C133.254 438.741 129.273 447.164 126.565 455.133C120.178 472.833 117.621 492.101 120.242 510.785C120.685 514.839 121.753 519.716 122.551 523.76C121.3 519.551 120.278 515.277 119.487 510.958C115.938 492.155 118.214 472.455 124.655 454.517C127.892 445.013 132.865 435.53 136.9 426.404C141.766 414.273 143.06 400.919 142.456 387.912V387.826Z" fill="#5473BE"/>
</g>
<g style="mix-blend-mode:lighten" opacity="0.51">
<path d="M334.817 318.172L352.597 300.364V272.662L307.188 318.172H334.817Z" fill="white"/>
</g>
<path d="M383.121 315.931L380.857 316.746C380.285 316.952 379.987 317.583 380.193 318.156L389.832 345.063C390.037 345.636 390.667 345.934 391.239 345.728L393.504 344.913C394.076 344.708 394.373 344.076 394.168 343.503L384.528 316.596C384.323 316.023 383.693 315.725 383.121 315.931Z" fill="#6F522F"/>
<path d="M405.051 368.158L388.976 373.942C388.167 374.223 387.284 374.2 386.49 373.878C385.697 373.556 385.047 372.956 384.661 372.191L372.793 348.349C372.698 348.162 372.644 347.956 372.635 347.746C372.625 347.536 372.66 347.326 372.738 347.131C372.815 346.936 372.934 346.759 373.084 346.613C373.235 346.467 373.416 346.355 373.613 346.284L399.506 336.975C399.705 336.904 399.916 336.876 400.126 336.893C400.336 336.91 400.541 336.972 400.725 337.074C400.91 337.176 401.071 337.317 401.197 337.486C401.324 337.655 401.413 337.849 401.459 338.056L407.392 364.006C407.587 364.866 407.455 365.767 407.022 366.535C406.589 367.303 405.887 367.881 405.051 368.158Z" fill="white"/>
<path d="M391.904 316.235L389.51 316.754C388.928 316.88 388.558 317.456 388.683 318.039L395.637 350.273C395.763 350.856 396.337 351.227 396.92 351.101L399.313 350.582C399.896 350.456 400.266 349.881 400.14 349.297L393.186 317.064C393.06 316.48 392.486 316.109 391.904 316.235Z" fill="white"/>
<path d="M295.709 328.076L281.511 327.925H280.982L266.784 327.784C268.942 342.002 265.479 354.815 257.808 366.417L280.572 366.655H281.101L303.865 366.893C296.442 355.053 293.281 342.24 295.709 328.076Z" fill="#1B55D4"/>
<path d="M307.882 359.387L253.985 358.822C251.864 358.8 250.127 360.505 250.105 362.631L250.094 363.69C250.071 365.816 251.773 367.557 253.894 367.579L307.791 368.145C309.912 368.167 311.649 366.462 311.672 364.336L311.683 363.277C311.705 361.151 310.003 359.41 307.882 359.387Z" fill="#224799"/>
<path d="M363.137 331.266L200.229 329.546C199.172 329.535 198.128 329.315 197.156 328.899C196.184 328.484 195.303 327.88 194.564 327.123C193.824 326.366 193.241 325.47 192.847 324.487C192.453 323.504 192.256 322.453 192.267 321.394L193.346 218.005C193.369 215.865 194.239 213.821 195.764 212.323C197.289 210.825 199.345 209.995 201.481 210.015L364.389 211.734C366.526 211.76 368.565 212.634 370.059 214.164C371.554 215.694 372.382 217.756 372.362 219.897L371.283 323.286C371.272 324.346 371.052 325.394 370.636 326.369C370.221 327.344 369.617 328.227 368.861 328.968C368.104 329.709 367.209 330.294 366.227 330.688C365.245 331.082 364.195 331.278 363.137 331.266Z" fill="#224799"/>
<path d="M361.961 309.695L201.599 308.008L202.657 219.357L363.019 221.044L361.961 309.695Z" fill="#56B9FF"/>
<path d="M361.961 309.695L201.599 308.008L201.696 303.434L362.058 305.132L361.961 309.695Z" fill="#59B0FF"/>
<path d="M363.037 221.023L202.672 219.34L202.623 224.119L362.987 225.802L363.037 221.023Z" fill="#59B0FF"/>
<path d="M287.283 319.75C287.272 320.844 286.938 321.909 286.323 322.812C285.708 323.715 284.839 324.414 283.827 324.822C282.815 325.23 281.705 325.328 280.637 325.103C279.57 324.879 278.593 324.342 277.83 323.56C277.067 322.779 276.552 321.789 276.351 320.714C276.15 319.64 276.272 318.53 276.701 317.524C277.129 316.519 277.846 315.664 278.76 315.067C279.674 314.47 280.744 314.158 281.834 314.171C282.558 314.178 283.273 314.328 283.938 314.613C284.604 314.897 285.207 315.31 285.713 315.828C286.219 316.346 286.618 316.96 286.888 317.633C287.157 318.306 287.291 319.025 287.283 319.75Z" fill="#3B85F7"/>
<path d="M282.18 293.671C299.352 293.671 313.272 279.719 313.272 262.509C313.272 245.299 299.352 231.348 282.18 231.348C265.008 231.348 251.087 245.299 251.087 262.509C251.087 279.719 265.008 293.671 282.18 293.671Z" fill="white"/>
<path d="M294.004 254.746L270.528 254.497C270.228 254.494 269.93 254.551 269.651 254.664C269.372 254.776 269.119 254.943 268.904 255.153C268.69 255.364 268.519 255.615 268.402 255.892C268.284 256.169 268.222 256.467 268.219 256.768L267.971 280.296C267.965 280.905 268.2 281.491 268.625 281.927C269.05 282.363 269.629 282.612 270.237 282.62L293.702 282.869C294.004 282.872 294.303 282.815 294.583 282.702C294.863 282.589 295.118 282.422 295.333 282.21C295.549 281.998 295.72 281.746 295.838 281.467C295.956 281.189 296.019 280.89 296.021 280.588L296.27 257.071C296.274 256.769 296.219 256.469 296.107 256.189C295.995 255.908 295.829 255.652 295.619 255.436C295.408 255.22 295.157 255.048 294.88 254.93C294.603 254.811 294.305 254.749 294.004 254.746ZM284.294 268.37L284.24 272.922C284.24 273.495 284.013 274.045 283.608 274.451C283.204 274.856 282.655 275.084 282.083 275.084C281.51 275.084 280.961 274.856 280.557 274.451C280.152 274.045 279.925 273.495 279.925 272.922V268.37C279.476 268.029 279.113 267.587 278.865 267.08C278.618 266.573 278.493 266.015 278.501 265.45C278.504 264.826 278.666 264.214 278.972 263.67C279.278 263.127 279.717 262.671 280.249 262.347C280.78 262.022 281.386 261.839 282.008 261.815C282.63 261.791 283.247 261.927 283.802 262.21C284.357 262.493 284.83 262.914 285.177 263.432C285.523 263.951 285.731 264.549 285.782 265.171C285.832 265.793 285.723 266.417 285.464 266.985C285.206 267.552 284.807 268.044 284.305 268.413L284.294 268.37Z" fill="#397DEF"/>
<path d="M294.004 254.746L270.528 254.497C270.228 254.494 269.93 254.551 269.651 254.664C269.372 254.776 269.119 254.943 268.904 255.153C268.69 255.364 268.519 255.615 268.402 255.892C268.284 256.169 268.222 256.467 268.219 256.768V259.644C268.222 259.342 268.284 259.043 268.402 258.764C268.52 258.486 268.692 258.234 268.908 258.022C269.123 257.81 269.378 257.643 269.658 257.53C269.938 257.417 270.237 257.36 270.539 257.363L294.004 257.611C294.305 257.614 294.603 257.677 294.88 257.795C295.157 257.914 295.408 258.086 295.619 258.302C295.829 258.518 295.995 258.773 296.107 259.054C296.219 259.334 296.274 259.634 296.27 259.936V257.071C296.274 256.769 296.219 256.469 296.107 256.189C295.995 255.908 295.829 255.652 295.619 255.436C295.408 255.22 295.157 255.048 294.88 254.93C294.603 254.811 294.305 254.749 294.004 254.746Z" fill="#3E69F9"/>
<path d="M273.862 255.838V250.626C273.872 249.52 274.099 248.426 274.531 247.408C274.964 246.39 275.592 245.467 276.381 244.693C277.17 243.918 278.103 243.307 279.128 242.895C280.153 242.483 281.248 242.277 282.352 242.29C283.456 242.301 284.547 242.53 285.562 242.964C286.577 243.398 287.498 244.028 288.27 244.818C289.042 245.608 289.652 246.543 290.064 247.569C290.476 248.596 290.682 249.693 290.67 250.799L290.616 256.022" stroke="#397DEF" stroke-width="4.42" stroke-miterlimit="10"/>
<path d="M273.862 250.626C273.872 249.52 274.099 248.426 274.531 247.408C274.964 246.39 275.592 245.467 276.381 244.693C277.17 243.918 278.103 243.307 279.128 242.895C280.153 242.483 281.248 242.277 282.352 242.29" stroke="#3E69F9" stroke-width="4.42" stroke-miterlimit="10"/>
<path style="mix-blend-mode:lighten" opacity="0.51" d="M256.136 219.919L202.096 272.954L201.599 320.172H201.718L303.379 220.416L256.136 219.919Z" fill="url(#paint8_linear_0_1)"/>
<path style="mix-blend-mode:lighten" opacity="0.51" d="M260.883 305.921L347.537 220.881L318.203 220.568L231.236 305.921H260.883Z" fill="url(#paint9_linear_0_1)"/>
<path d="M471.218 209.258L399.862 197.873C397.902 197.559 396.147 196.479 394.982 194.869C393.817 193.259 393.337 191.252 393.648 189.287L405.979 111.654L492.105 125.386L479.773 203.03C479.62 204.002 479.276 204.934 478.763 205.773C478.25 206.612 477.577 207.342 476.783 207.92C475.988 208.498 475.088 208.914 474.133 209.144C473.178 209.373 472.188 209.412 471.218 209.258Z" fill="#72B6FF"/>
<path d="M493.835 114.483L407.714 100.751L405.986 111.632L492.108 125.364L493.835 114.483Z" fill="#224799"/>
<path d="M489.42 115.889L484.167 115.051C483.755 114.985 483.368 115.267 483.302 115.68L482.467 120.944C482.401 121.357 482.682 121.745 483.094 121.81L488.347 122.648C488.758 122.714 489.145 122.432 489.211 122.019L490.047 116.755C490.112 116.342 489.831 115.954 489.42 115.889Z" fill="#72B6FF"/>
<path d="M488.059 117.569L484.445 120.185" stroke="white" stroke-width="0.78" stroke-miterlimit="10" stroke-linecap="round"/>
<path d="M487.563 120.682L484.941 117.071" stroke="white" stroke-width="0.78" stroke-miterlimit="10" stroke-linecap="round"/>
<path d="M450.795 157.694C450.078 157.587 449.406 157.28 448.857 156.808C448.307 156.335 447.902 155.716 447.688 155.023C446.289 155.742 444.698 155.996 443.146 155.747C441.594 155.498 440.162 154.759 439.057 153.639C438.64 154.226 438.067 154.685 437.404 154.964C436.741 155.243 436.013 155.331 435.302 155.217C434.156 155.034 432.985 155.079 431.856 155.349C430.727 155.619 429.662 156.11 428.723 156.792C427.783 157.475 426.986 158.337 426.379 159.328C425.772 160.32 425.365 161.421 425.183 162.57L424.395 167.576C424.329 167.982 424.343 168.398 424.438 168.798C424.532 169.199 424.705 169.577 424.945 169.91C425.186 170.244 425.49 170.526 425.84 170.742C426.19 170.957 426.579 171.101 426.984 171.166L453.762 175.491C454.168 175.556 454.582 175.539 454.982 175.444C455.382 175.348 455.759 175.174 456.091 174.932C456.424 174.69 456.706 174.384 456.921 174.033C457.135 173.682 457.279 173.292 457.344 172.885L458.131 167.89C458.32 166.737 458.281 165.558 458.014 164.421C457.748 163.284 457.259 162.211 456.578 161.263C455.896 160.316 455.034 159.513 454.042 158.9C453.049 158.287 451.946 157.877 450.795 157.694Z" fill="white"/>
<path d="M443.739 151.898C448.508 152.666 453.524 146.048 454.42 140.361C455.315 134.674 452.197 129.451 447.429 128.695C442.66 127.938 438.064 131.938 437.169 137.615C436.273 143.291 438.981 151.141 443.739 151.898Z" fill="white"/>
<path d="M444.781 181.864L410.079 176.331L409.199 181.873L443.901 187.406L444.781 181.864Z" fill="white"/>
<path d="M467.782 194.983L408.617 185.549L407.738 191.091L466.903 200.525L467.782 194.983Z" fill="white"/>
<path d="M146.405 110.616C145.212 111.108 144.208 111.972 143.543 113.08C142.879 114.188 142.588 115.482 142.715 116.768C143.326 122.872 144.868 128.845 147.29 134.479C155.575 153.942 184.273 161.186 194.835 163.219C196.01 163.448 197.227 163.319 198.329 162.848C199.431 162.378 200.367 161.588 201.017 160.58C206.875 151.53 221.515 125.775 213.262 106.302C210.919 100.753 207.763 95.5852 203.897 90.97C203.002 89.9366 201.783 89.2389 200.44 88.9913C199.098 88.7438 197.711 88.9611 196.507 89.6076C189.071 93.5438 180.492 94.7414 172.265 92.9919C171.089 92.7394 169.865 92.8408 168.746 93.2832C167.627 93.7256 166.663 94.4894 165.975 95.4788C161.455 102.042 154.95 107.124 146.405 110.616Z" fill="#224799"/>
<path d="M168.273 93.5433C167.357 93.9848 166.567 94.6504 165.975 95.4787C161.455 102.042 154.95 107.124 146.405 110.616C145.212 111.108 144.208 111.972 143.543 113.08C142.879 114.188 142.588 115.482 142.715 116.768C143.326 122.872 144.868 128.845 147.29 134.479C155.575 153.942 184.273 161.186 194.835 163.219C195.832 163.405 196.859 163.338 197.823 163.024L168.273 93.5433Z" fill="#1B55D4"/>
<path d="M170.69 98.2683C170.862 98.2136 171.047 98.2136 171.219 98.2683C179.514 100.016 188.144 99.1593 195.935 95.8139C196.939 95.3814 197.953 94.9057 198.945 94.3867H199.021C199.153 94.32 199.301 94.2946 199.448 94.3139C199.594 94.3332 199.731 94.3962 199.841 94.4948C203.365 98.7029 206.241 103.415 208.375 108.475C215.765 125.84 201.2 150.59 196.507 157.769C196.433 157.889 196.324 157.983 196.195 158.039C196.066 158.095 195.922 158.111 195.784 158.083C187.402 156.461 159.502 149.844 152.123 132.479C149.913 127.341 148.505 121.892 147.948 116.325C147.931 116.179 147.963 116.032 148.036 115.906C148.11 115.779 148.223 115.68 148.358 115.622L149.242 115.255C157.711 111.829 165.026 106.048 170.323 98.5927C170.405 98.4843 170.512 98.3986 170.636 98.344M168.608 93.3919C167.558 93.852 166.66 94.602 166.019 95.5544C161.283 102.163 154.757 107.273 147.214 110.281L146.405 110.616H146.319C145.148 111.121 144.168 111.987 143.52 113.087C142.873 114.187 142.591 115.465 142.715 116.736C143.322 122.851 144.865 128.835 147.29 134.479C155.575 153.942 184.273 161.186 194.835 163.219C196.011 163.449 197.228 163.321 198.33 162.851C199.432 162.38 200.368 161.589 201.017 160.58C206.875 151.53 221.515 125.775 213.262 106.302C210.919 100.753 207.763 95.5852 203.897 90.9699C203.057 89.9981 201.928 89.3216 200.675 89.0395C199.423 88.7574 198.114 88.8845 196.939 89.4021L196.507 89.6076C195.623 90.0617 194.738 90.4834 193.853 90.8618C187.057 93.7997 179.519 94.5552 172.276 93.0243C171.048 92.7675 169.771 92.8958 168.619 93.3919H168.608Z" fill="#72B6FF"/>
<path d="M194.296 112.487L184.877 135.928L173.786 131.452" stroke="white" stroke-width="4.1" stroke-linecap="round" stroke-linejoin="round"/>
<path d="M421.666 381.533C421.943 380.807 422.497 380.222 423.205 379.906C423.913 379.589 424.718 379.568 425.442 379.846L451.334 389.815L449.975 393.372L421.666 381.533Z" fill="#6F522F"/>
<path d="M461.271 393.643L450.309 389.426C450.118 389.352 449.904 389.357 449.716 389.44C449.528 389.523 449.381 389.677 449.306 389.869L448.227 392.821C448.191 392.915 448.173 393.016 448.176 393.117C448.178 393.218 448.201 393.318 448.242 393.41C448.283 393.503 448.342 393.586 448.415 393.656C448.489 393.725 448.575 393.78 448.67 393.816L452.985 395.481C453.187 395.562 453.372 395.682 453.527 395.835C453.683 395.988 453.806 396.17 453.891 396.371C453.975 396.573 454.019 396.789 454.019 397.007C454.019 397.226 453.975 397.442 453.891 397.643C453.583 398.449 453.439 399.308 453.467 400.171C453.494 401.033 453.693 401.881 454.052 402.665C454.411 403.45 454.922 404.155 455.555 404.738C456.189 405.322 456.933 405.774 457.743 406.066C459.33 406.612 461.066 406.528 462.594 405.83C464.121 405.132 465.323 403.874 465.953 402.314C466.56 400.71 466.509 398.929 465.809 397.363C465.109 395.796 463.819 394.571 462.22 393.956C461.912 393.829 461.594 393.724 461.271 393.643ZM457.419 399.049C457.606 398.561 457.932 398.14 458.357 397.839C458.783 397.538 459.288 397.37 459.808 397.356C460.329 397.342 460.842 397.484 461.283 397.763C461.723 398.041 462.071 398.445 462.283 398.922C462.494 399.399 462.56 399.928 462.471 400.443C462.382 400.957 462.143 401.433 461.784 401.812C461.425 402.19 460.963 402.453 460.454 402.567C459.946 402.682 459.415 402.643 458.929 402.455C458.606 402.33 458.31 402.143 458.059 401.904C457.808 401.665 457.607 401.378 457.467 401.061C457.326 400.743 457.25 400.401 457.242 400.054C457.234 399.707 457.294 399.362 457.419 399.038V399.049Z" fill="#6F522F"/>
<path d="M423.823 390.367C423.44 390.367 423.06 390.291 422.706 390.143C422.352 389.996 422.03 389.78 421.76 389.508C421.489 389.235 421.275 388.912 421.129 388.557C420.983 388.201 420.909 387.821 420.91 387.436V387.339L451.593 386.604V390.367H423.823Z" fill="white"/>
<path d="M463.148 390.388C464.865 390.388 466.511 389.705 467.725 388.488C468.939 387.271 469.621 385.621 469.621 383.901C469.605 382.211 468.939 380.593 467.761 379.384C466.583 378.175 464.984 377.469 463.299 377.413C462.438 377.396 461.582 377.551 460.782 377.869C459.982 378.188 459.253 378.663 458.638 379.267C458.023 379.871 457.534 380.592 457.201 381.388C456.868 382.183 456.696 383.038 456.696 383.901C456.703 384.119 456.667 384.337 456.589 384.541C456.511 384.745 456.394 384.932 456.243 385.09C456.092 385.248 455.912 385.375 455.712 385.462C455.512 385.549 455.296 385.595 455.078 385.598H450.45C450.348 385.598 450.248 385.618 450.154 385.658C450.06 385.697 449.975 385.754 449.904 385.827C449.833 385.899 449.777 385.985 449.739 386.08C449.701 386.174 449.682 386.275 449.684 386.377V389.653C449.684 389.856 449.764 390.052 449.908 390.196C450.052 390.34 450.246 390.421 450.45 390.421H462.198C462.515 390.436 462.833 390.425 463.148 390.388ZM463.148 381.327C463.669 381.327 464.177 381.482 464.61 381.772C465.043 382.062 465.381 382.474 465.58 382.956C465.779 383.438 465.831 383.968 465.73 384.48C465.628 384.992 465.377 385.462 465.009 385.831C464.641 386.2 464.172 386.451 463.661 386.553C463.151 386.655 462.622 386.603 462.14 386.403C461.659 386.203 461.248 385.865 460.959 385.431C460.67 384.997 460.515 384.487 460.515 383.966C460.515 383.266 460.793 382.595 461.286 382.1C461.78 381.605 462.45 381.327 463.148 381.327Z" fill="white"/>
<path d="M443.2 389.685C443.76 389.685 444.214 389.23 444.214 388.669C444.214 388.108 443.76 387.653 443.2 387.653C442.64 387.653 442.186 388.108 442.186 388.669C442.186 389.23 442.64 389.685 443.2 389.685Z" fill="#6F9EFE"/>
<path d="M342.466 161.943L293.281 147.281C292.845 147.145 292.386 147.098 291.931 147.143C291.477 147.187 291.035 147.322 290.633 147.539C290.231 147.757 289.877 148.053 289.59 148.409C289.304 148.766 289.092 149.177 288.966 149.617L280.421 178.399C280.285 178.835 280.237 179.294 280.28 179.748C280.323 180.203 280.456 180.644 280.671 181.047C280.886 181.45 281.178 181.805 281.532 182.093C281.885 182.381 282.293 182.596 282.73 182.724L287.898 184.271L285.729 191.666C285.664 191.89 285.663 192.127 285.726 192.352C285.789 192.576 285.914 192.778 286.086 192.934C286.258 193.091 286.471 193.196 286.699 193.238C286.928 193.279 287.164 193.255 287.38 193.169L300.434 187.914L331.969 197.31C332.84 197.569 333.778 197.47 334.577 197.037C335.376 196.603 335.971 195.869 336.231 194.996L344.775 166.225C344.905 165.791 344.947 165.337 344.901 164.887C344.855 164.438 344.721 164.002 344.507 163.604C344.292 163.206 344.002 162.855 343.652 162.57C343.302 162.285 342.899 162.072 342.466 161.943Z" fill="#F5EDE0"/>
<path d="M313.251 170.139L311.74 175.231" stroke="#6F522F" stroke-width="1.74" stroke-miterlimit="10" stroke-linecap="round"/>
<path d="M310.672 170.755L314.319 174.615" stroke="#6F522F" stroke-width="1.74" stroke-miterlimit="10" stroke-linecap="round"/>
<path d="M309.917 173.307L315.074 172.074" stroke="#6F522F" stroke-width="1.74" stroke-miterlimit="10" stroke-linecap="round"/>
<path d="M301.588 166.668L300.078 171.76" stroke="#6F522F" stroke-width="1.74" stroke-miterlimit="10" stroke-linecap="round"/>
<path d="M299.01 167.284L302.656 171.144" stroke="#6F522F" stroke-width="1.74" stroke-miterlimit="10" stroke-linecap="round"/>
<path d="M298.255 169.825L303.412 168.592" stroke="#6F522F" stroke-width="1.74" stroke-miterlimit="10" stroke-linecap="round"/>
<path d="M325.82 173.88L324.309 178.983" stroke="#6F522F" stroke-width="1.74" stroke-miterlimit="10" stroke-linecap="round"/>
<path d="M323.241 174.507L326.888 178.367" stroke="#6F522F" stroke-width="1.74" stroke-miterlimit="10" stroke-linecap="round"/>
<path d="M322.486 177.048L327.643 175.815" stroke="#6F522F" stroke-width="1.74" stroke-miterlimit="10" stroke-linecap="round"/>
<g style="mix-blend-mode:overlay" opacity="0.51">
<path d="M201.707 261.98L199.841 271.689H221.375V279.582H224.568V277.095H233.501V279.582H236.857V271.689H242.758V261.98H201.707Z" fill="black"/>
</g>
<path d="M221.375 264.596V277.344H224.568V274.857H233.501V277.344H236.857V264.596H221.375Z" fill="#6F522F"/>
<path d="M242.758 259.741H182.169V269.451H242.758V259.741Z" fill="#F5EDE0"/>
<path d="M193.292 259.741H182.169V269.451H193.292V259.741Z" fill="#6F522F"/>
<path d="M178.21 285.378H164.897C162.858 285.375 160.904 284.561 159.464 283.116C158.024 281.67 157.215 279.711 157.215 277.668V251.524C157.215 249.482 158.024 247.524 159.465 246.08C160.905 244.637 162.859 243.826 164.897 243.826H178.21C180.246 243.828 182.198 244.64 183.638 246.083C185.078 247.527 185.888 249.483 185.891 251.524V277.668C185.888 279.71 185.078 281.668 183.639 283.113C182.199 284.558 180.247 285.372 178.21 285.378ZM164.897 251.254C164.834 251.254 164.773 251.279 164.729 251.323C164.684 251.368 164.659 251.428 164.659 251.492V277.636C164.659 277.699 164.684 277.76 164.729 277.804C164.773 277.849 164.834 277.874 164.897 277.874H178.21C178.273 277.874 178.333 277.849 178.378 277.804C178.422 277.76 178.447 277.699 178.447 277.636V251.524C178.447 251.461 178.422 251.4 178.378 251.356C178.333 251.311 178.273 251.286 178.21 251.286L164.897 251.254Z" fill="#F5EDE0"/>
<path d="M119.125 238.803C136.321 231.819 144.612 212.186 137.643 194.952C130.674 177.718 111.085 169.409 93.889 176.393C76.693 183.377 68.402 203.009 75.3706 220.243C82.3392 237.477 101.929 245.787 119.125 238.803Z" stroke="#F5EDE0" stroke-width="1.88" stroke-miterlimit="10"/>
<path d="M106.487 241.274C116.718 241.274 125.011 226.199 125.011 207.604C125.011 189.008 116.718 173.934 106.487 173.934C96.2564 173.934 87.9629 189.008 87.9629 207.604C87.9629 226.199 96.2564 241.274 106.487 241.274Z" stroke="#F5EDE0" stroke-width="1.88" stroke-miterlimit="10"/>
<path d="M106.487 173.923V241.274" stroke="#F5EDE0" stroke-width="1.88" stroke-miterlimit="10"/>
<path d="M140.093 207.604H72.8912" stroke="#F5EDE0" stroke-width="1.88" stroke-miterlimit="10"/>
<path d="M78.566 188.866H134.419" stroke="#F5EDE0" stroke-width="1.88" stroke-miterlimit="10"/>
<path d="M78.566 225.704H134.419" stroke="#F5EDE0" stroke-width="1.88" stroke-miterlimit="10"/>
<path d="M368.33 398.182L356.177 399.596L357.423 410.358L369.576 408.944L368.33 398.182Z" fill="white"/>
<path d="M368.319 398.19L365.833 398.479L367.079 409.241L369.565 408.952L368.319 398.19Z" fill="#3B85F7"/>
<path d="M403.006 392.453L366.709 396.675L368.342 410.777L404.639 406.556L403.006 392.453Z" fill="#2653E3"/>
<path d="M362.508 401.129L360.526 401.36L360.756 403.347L362.738 403.116L362.508 401.129Z" fill="#3B85F7"/>
<path d="M363.008 405.411L361.026 405.642L361.256 407.629L363.238 407.398L363.008 405.411Z" fill="#3B85F7"/>
<path d="M292.321 404.693C290.4 405.224 288.598 406.12 287.013 407.331C284.178 403.389 280.134 400.483 275.498 399.058C270.862 397.634 265.889 397.767 261.336 399.439C256.782 401.112 252.9 404.23 250.28 408.32C247.661 412.409 246.447 417.245 246.825 422.09C243.639 423.319 241.047 425.732 239.588 428.826C238.129 431.92 237.915 435.459 238.992 438.707C240.068 441.955 242.351 444.662 245.366 446.267C248.382 447.873 251.899 448.252 255.187 447.327L300.564 434.838C304.546 433.743 307.932 431.106 309.976 427.509C312.019 423.912 312.553 419.649 311.46 415.657C310.367 411.665 307.737 408.272 304.147 406.224C300.558 404.176 296.304 403.641 292.321 404.736V404.693Z" fill="#2653E3"/>
<path d="M278.49 452.289L275.372 453.144L269.978 433.4C269.909 433.144 269.79 432.904 269.629 432.694C269.467 432.484 269.266 432.309 269.036 432.177C268.807 432.045 268.553 431.96 268.291 431.927C268.029 431.894 267.762 431.913 267.507 431.984L260.268 433.984C259.754 434.126 259.316 434.466 259.051 434.93C258.787 435.394 258.716 435.944 258.855 436.46L264.249 456.203L261.131 457.069C260.852 457.144 260.601 457.301 260.412 457.52C260.222 457.739 260.101 458.009 260.065 458.297C260.03 458.584 260.08 458.876 260.21 459.135C260.34 459.394 260.545 459.608 260.797 459.75L271.844 466.043C272.181 466.235 272.579 466.286 272.953 466.185C273.327 466.083 273.646 465.838 273.84 465.502L280.119 454.43C280.262 454.181 280.329 453.895 280.31 453.608C280.292 453.321 280.189 453.046 280.015 452.817C279.841 452.588 279.603 452.416 279.332 452.322C279.061 452.228 278.768 452.217 278.49 452.289Z" fill="white"/>
<path d="M296.701 436.319L293.594 437.174L298.988 456.917C299.127 457.435 299.057 457.986 298.792 458.452C298.528 458.918 298.09 459.26 297.575 459.404L290.368 461.383C290.11 461.454 289.841 461.473 289.575 461.439C289.31 461.404 289.054 461.317 288.823 461.182C288.592 461.047 288.39 460.867 288.229 460.653C288.068 460.438 287.952 460.194 287.887 459.934L282.492 440.179L279.375 441.044C279.093 441.124 278.793 441.117 278.515 441.025C278.237 440.932 277.993 440.759 277.814 440.526C277.636 440.293 277.531 440.013 277.512 439.719C277.494 439.426 277.564 439.135 277.713 438.882L284.003 427.821C284.195 427.483 284.513 427.235 284.887 427.132C285.261 427.029 285.661 427.078 285.999 427.269L297.036 433.562C297.309 433.697 297.534 433.913 297.679 434.181C297.824 434.45 297.883 434.757 297.846 435.06C297.809 435.363 297.679 435.647 297.474 435.873C297.269 436.098 296.999 436.254 296.701 436.319Z" fill="white"/>
<path d="M261.789 392.572C261.119 392.569 260.477 392.301 260.003 391.824C259.53 391.348 259.265 390.703 259.265 390.031C259.259 385.193 257.338 380.554 253.924 377.132C250.51 373.71 245.882 371.786 241.053 371.78C240.707 371.803 240.36 371.754 240.034 371.637C239.707 371.52 239.408 371.337 239.155 371.099C238.902 370.861 238.7 370.574 238.562 370.255C238.424 369.936 238.353 369.592 238.353 369.244C238.353 368.897 238.424 368.553 238.562 368.234C238.7 367.915 238.902 367.628 239.155 367.39C239.408 367.152 239.707 366.969 240.034 366.852C240.36 366.735 240.707 366.686 241.053 366.709C247.223 366.718 253.137 369.177 257.499 373.549C261.861 377.921 264.316 383.849 264.325 390.031C264.325 390.705 264.057 391.352 263.582 391.828C263.106 392.305 262.462 392.572 261.789 392.572Z" fill="white"/>
<path d="M252.133 392.572C251.461 392.572 250.816 392.305 250.341 391.828C249.865 391.351 249.598 390.705 249.598 390.031C249.598 387.759 248.698 385.58 247.096 383.972C245.494 382.365 243.321 381.46 241.053 381.457C240.707 381.48 240.36 381.431 240.034 381.314C239.707 381.197 239.408 381.014 239.155 380.776C238.902 380.538 238.7 380.251 238.562 379.932C238.424 379.613 238.353 379.269 238.353 378.922C238.353 378.574 238.424 378.23 238.562 377.911C238.7 377.592 238.902 377.305 239.155 377.067C239.408 376.83 239.707 376.646 240.034 376.529C240.36 376.412 240.707 376.363 241.053 376.386C244.662 376.392 248.12 377.832 250.671 380.39C253.221 382.948 254.655 386.415 254.658 390.031C254.658 390.703 254.392 391.348 253.919 391.824C253.446 392.3 252.804 392.569 252.133 392.572Z" fill="white"/>
<path d="M241.053 393.751C240.319 393.751 239.602 393.533 238.991 393.124C238.381 392.715 237.905 392.134 237.625 391.455C237.344 390.775 237.27 390.027 237.413 389.306C237.557 388.584 237.91 387.921 238.429 387.401C238.948 386.881 239.609 386.527 240.329 386.383C241.049 386.24 241.795 386.313 242.474 386.595C243.152 386.876 243.731 387.353 244.139 387.965C244.547 388.576 244.765 389.296 244.765 390.031C244.765 391.018 244.374 391.964 243.678 392.661C242.982 393.359 242.038 393.751 241.053 393.751Z" fill="white"/>
<path d="M112.119 336.639H211.352" stroke="#F5EDE0" stroke-width="1.88" stroke-miterlimit="10"/>
<path d="M183.723 299.91V364.222" stroke="#F5EDE0" stroke-width="1.88" stroke-miterlimit="10"/>
<path d="M107.598 335.158C107.892 335.158 108.179 335.245 108.423 335.408C108.667 335.571 108.858 335.803 108.972 336.074C109.085 336.346 109.116 336.645 109.06 336.933C109.004 337.222 108.864 337.488 108.658 337.698C108.452 337.907 108.189 338.051 107.902 338.111C107.614 338.171 107.316 338.144 107.043 338.035C106.771 337.925 106.537 337.737 106.371 337.495C106.205 337.252 106.114 336.966 106.109 336.672C106.112 336.278 106.27 335.901 106.549 335.624C106.828 335.346 107.205 335.19 107.598 335.19M107.598 332.141C106.701 332.139 105.824 332.404 105.077 332.902C104.33 333.4 103.748 334.11 103.403 334.94C103.059 335.77 102.968 336.684 103.143 337.566C103.317 338.448 103.749 339.258 104.383 339.894C105.018 340.529 105.826 340.962 106.706 341.137C107.586 341.312 108.498 341.221 109.326 340.876C110.155 340.531 110.862 339.947 111.36 339.199C111.857 338.45 112.121 337.571 112.119 336.672C112.116 335.471 111.639 334.32 110.792 333.471C109.944 332.622 108.796 332.144 107.598 332.141Z" fill="#6F522F"/>
<path d="M183.734 365.768C184.105 365.8 184.451 365.97 184.704 366.246C184.956 366.521 185.096 366.881 185.096 367.255C185.096 367.629 184.956 367.989 184.704 368.264C184.451 368.539 184.105 368.71 183.734 368.742C183.528 368.759 183.321 368.734 183.126 368.667C182.931 368.6 182.752 368.494 182.6 368.354C182.448 368.214 182.327 368.044 182.244 367.855C182.161 367.666 182.118 367.462 182.118 367.255C182.118 367.048 182.161 366.844 182.244 366.655C182.327 366.465 182.448 366.296 182.6 366.156C182.752 366.016 182.931 365.909 183.126 365.843C183.321 365.776 183.528 365.751 183.734 365.768ZM183.734 362.719C182.839 362.719 181.965 362.985 181.222 363.483C180.479 363.98 179.899 364.688 179.557 365.516C179.215 366.344 179.126 367.255 179.3 368.133C179.474 369.012 179.905 369.819 180.537 370.453C181.169 371.087 181.975 371.518 182.852 371.693C183.728 371.868 184.637 371.778 185.463 371.435C186.289 371.092 186.995 370.511 187.492 369.766C187.989 369.021 188.254 368.146 188.254 367.249C188.254 366.048 187.778 364.896 186.93 364.046C186.082 363.196 184.932 362.719 183.734 362.719Z" fill="#6F522F"/>
<path d="M183.734 295.639C184.028 295.639 184.316 295.726 184.561 295.89C184.805 296.054 184.996 296.287 185.109 296.56C185.222 296.832 185.251 297.132 185.194 297.422C185.136 297.711 184.994 297.977 184.786 298.186C184.578 298.395 184.313 298.537 184.024 298.594C183.735 298.652 183.436 298.622 183.164 298.509C182.892 298.396 182.659 298.205 182.496 297.96C182.332 297.714 182.245 297.426 182.245 297.131C182.243 296.934 182.281 296.74 182.355 296.558C182.429 296.376 182.539 296.211 182.678 296.073C182.816 295.934 182.981 295.824 183.162 295.749C183.343 295.675 183.538 295.637 183.734 295.639ZM183.734 292.6C182.839 292.6 181.965 292.866 181.222 293.364C180.479 293.862 179.899 294.569 179.557 295.397C179.215 296.225 179.126 297.136 179.3 298.015C179.474 298.893 179.905 299.701 180.537 300.334C181.169 300.968 181.975 301.399 182.852 301.574C183.728 301.749 184.637 301.659 185.463 301.316C186.289 300.973 186.995 300.393 187.492 299.648C187.989 298.903 188.254 298.027 188.254 297.131C188.255 296.535 188.139 295.946 187.913 295.395C187.686 294.845 187.353 294.345 186.933 293.924C186.513 293.503 186.014 293.17 185.465 292.942C184.916 292.715 184.328 292.599 183.734 292.6Z" fill="#6F522F"/>
<path d="M214.254 335.158C214.549 335.158 214.838 335.246 215.083 335.41C215.328 335.575 215.519 335.809 215.631 336.082C215.743 336.355 215.772 336.656 215.714 336.945C215.656 337.235 215.513 337.501 215.303 337.709C215.094 337.917 214.828 338.059 214.538 338.115C214.249 338.171 213.949 338.14 213.677 338.026C213.405 337.911 213.174 337.718 213.011 337.471C212.849 337.225 212.763 336.935 212.766 336.639C212.768 336.246 212.927 335.869 213.205 335.591C213.484 335.314 213.861 335.158 214.254 335.158ZM214.254 332.109C213.357 332.107 212.48 332.372 211.733 332.87C210.986 333.368 210.404 334.077 210.059 334.907C209.715 335.738 209.625 336.652 209.799 337.534C209.973 338.416 210.405 339.226 211.04 339.861C211.674 340.497 212.482 340.93 213.362 341.105C214.242 341.28 215.154 341.189 215.983 340.844C216.811 340.499 217.519 339.915 218.016 339.167C218.513 338.418 218.777 337.539 218.775 336.639C218.772 335.439 218.295 334.288 217.448 333.439C216.601 332.59 215.452 332.112 214.254 332.109Z" fill="#6F522F"/>
<path d="M400.089 269.094H492.18" stroke="#F5EDE0" stroke-width="1.88" stroke-miterlimit="10"/>
<path d="M469.136 249.556V312.668" stroke="#F5EDE0" stroke-width="1.88" stroke-miterlimit="10"/>
<path d="M418.828 269.159V285.464" stroke="#F5EDE0" stroke-width="1.88" stroke-miterlimit="10"/>
<path d="M418.828 286.935C419.123 286.935 419.411 287.022 419.657 287.187C419.902 287.351 420.092 287.585 420.205 287.858C420.317 288.132 420.346 288.432 420.288 288.722C420.229 289.012 420.086 289.277 419.877 289.486C419.668 289.694 419.402 289.835 419.112 289.892C418.823 289.948 418.523 289.917 418.251 289.802C417.979 289.688 417.747 289.495 417.585 289.248C417.423 289.001 417.337 288.712 417.339 288.416C417.342 288.022 417.5 287.645 417.779 287.368C418.058 287.09 418.435 286.935 418.828 286.935ZM418.828 283.886C417.931 283.883 417.054 284.148 416.307 284.646C415.56 285.145 414.978 285.854 414.633 286.684C414.289 287.514 414.198 288.428 414.373 289.31C414.547 290.192 414.979 291.002 415.613 291.638C416.248 292.274 417.056 292.706 417.936 292.881C418.816 293.056 419.728 292.965 420.556 292.62C421.385 292.275 422.092 291.691 422.59 290.943C423.087 290.195 423.351 289.315 423.349 288.416C423.349 287.214 422.872 286.062 422.025 285.213C421.177 284.363 420.027 283.886 418.828 283.886Z" fill="#6F522F"/>
<path d="M469.136 245.512C469.43 245.512 469.718 245.6 469.963 245.764C470.208 245.928 470.398 246.161 470.511 246.433C470.624 246.706 470.653 247.006 470.596 247.295C470.538 247.585 470.397 247.851 470.188 248.059C469.98 248.268 469.715 248.41 469.426 248.468C469.137 248.525 468.838 248.496 468.566 248.383C468.294 248.27 468.061 248.079 467.898 247.833C467.734 247.588 467.647 247.299 467.647 247.004C467.647 246.609 467.804 246.229 468.083 245.949C468.362 245.669 468.741 245.512 469.136 245.512ZM469.136 242.474C468.242 242.474 467.368 242.74 466.624 243.237C465.881 243.735 465.301 244.443 464.959 245.271C464.617 246.098 464.528 247.009 464.702 247.888C464.876 248.767 465.307 249.574 465.939 250.208C466.571 250.841 467.377 251.273 468.254 251.448C469.131 251.622 470.04 251.533 470.866 251.19C471.692 250.847 472.398 250.266 472.894 249.521C473.391 248.776 473.656 247.9 473.656 247.004C473.656 245.803 473.18 244.65 472.332 243.801C471.484 242.951 470.335 242.474 469.136 242.474Z" fill="#6F522F"/>
<path d="M469.136 313.058C469.431 313.058 469.719 313.145 469.964 313.31C470.209 313.474 470.4 313.708 470.512 313.981C470.624 314.255 470.653 314.555 470.595 314.845C470.537 315.135 470.394 315.4 470.185 315.609C469.975 315.817 469.709 315.958 469.419 316.014C469.13 316.071 468.83 316.04 468.558 315.925C468.286 315.811 468.055 315.618 467.892 315.371C467.73 315.124 467.645 314.834 467.647 314.539C467.647 314.343 467.685 314.15 467.76 313.97C467.835 313.789 467.945 313.625 468.083 313.488C468.222 313.35 468.386 313.241 468.567 313.167C468.747 313.093 468.941 313.056 469.136 313.058ZM469.136 310.008C468.242 310.008 467.368 310.274 466.624 310.772C465.881 311.27 465.301 311.977 464.959 312.805C464.617 313.633 464.528 314.544 464.702 315.423C464.876 316.302 465.307 317.109 465.939 317.742C466.571 318.376 467.377 318.807 468.254 318.982C469.131 319.157 470.04 319.067 470.866 318.724C471.692 318.382 472.398 317.801 472.894 317.056C473.391 316.311 473.656 315.435 473.656 314.539C473.656 313.337 473.18 312.185 472.332 311.335C471.484 310.486 470.335 310.008 469.136 310.008Z" fill="#6F522F"/>
<path d="M396.971 267.602C397.265 267.602 397.553 267.69 397.798 267.853C398.043 268.017 398.233 268.25 398.346 268.523C398.459 268.796 398.488 269.096 398.431 269.385C398.373 269.675 398.232 269.941 398.023 270.149C397.815 270.358 397.55 270.5 397.261 270.558C396.972 270.615 396.673 270.586 396.401 270.473C396.129 270.36 395.896 270.169 395.733 269.923C395.569 269.678 395.482 269.389 395.482 269.094C395.48 268.898 395.518 268.703 395.592 268.521C395.667 268.34 395.776 268.175 395.915 268.036C396.053 267.897 396.218 267.787 396.399 267.713C396.58 267.638 396.775 267.601 396.971 267.602ZM396.971 264.564C396.077 264.564 395.203 264.829 394.459 265.327C393.716 265.825 393.136 266.533 392.794 267.36C392.452 268.188 392.363 269.099 392.537 269.978C392.711 270.857 393.142 271.664 393.774 272.298C394.406 272.931 395.212 273.363 396.089 273.538C396.966 273.712 397.875 273.623 398.701 273.28C399.527 272.937 400.233 272.356 400.729 271.611C401.226 270.866 401.491 269.99 401.491 269.094C401.492 268.499 401.377 267.909 401.15 267.359C400.923 266.808 400.59 266.308 400.17 265.887C399.75 265.467 399.251 265.133 398.702 264.906C398.153 264.679 397.565 264.562 396.971 264.564Z" fill="#6F522F"/>
<path d="M495.449 267.602C495.743 267.604 496.03 267.693 496.273 267.859C496.516 268.024 496.706 268.258 496.817 268.531C496.928 268.803 496.956 269.103 496.897 269.392C496.838 269.681 496.696 269.945 496.487 270.153C496.278 270.361 496.013 270.502 495.725 270.558C495.436 270.615 495.137 270.585 494.866 270.472C494.594 270.358 494.363 270.167 494.199 269.922C494.036 269.677 493.949 269.389 493.949 269.094C493.949 268.698 494.106 268.319 494.385 268.039C494.665 267.759 495.043 267.602 495.438 267.602M495.438 264.564C494.544 264.564 493.67 264.829 492.927 265.327C492.183 265.825 491.604 266.533 491.262 267.36C490.92 268.188 490.83 269.099 491.005 269.978C491.179 270.857 491.609 271.664 492.242 272.298C492.874 272.931 493.679 273.363 494.556 273.538C495.433 273.712 496.342 273.623 497.168 273.28C497.994 272.937 498.7 272.356 499.197 271.611C499.693 270.866 499.959 269.99 499.959 269.094C499.959 267.893 499.482 266.74 498.635 265.891C497.787 265.041 496.637 264.564 495.438 264.564Z" fill="#6F522F"/>
<path d="M262.026 130.219H375.318" stroke="#F5EDE0" stroke-width="1.88" stroke-miterlimit="10"/>
<path d="M280.896 95.9653V130.219" stroke="#F5EDE0" stroke-width="1.88" stroke-miterlimit="10"/>
<path d="M355.11 130.219V167.327" stroke="#F5EDE0" stroke-width="1.88" stroke-miterlimit="10"/>
<path d="M280.907 92.927C281.199 92.9272 281.484 93.0135 281.728 93.1752C281.971 93.3369 282.162 93.5668 282.276 93.8363C282.39 94.1058 282.423 94.403 282.369 94.6909C282.316 94.9788 282.18 95.2446 281.977 95.4552C281.774 95.6659 281.514 95.8121 281.229 95.8757C280.943 95.9392 280.646 95.9172 280.373 95.8126C280.1 95.7079 279.864 95.5251 279.694 95.2869C279.525 95.0487 279.428 94.7657 279.418 94.4732C279.416 94.2768 279.454 94.0821 279.528 93.9005C279.602 93.7188 279.712 93.5537 279.851 93.4149C279.989 93.276 280.154 93.1662 280.335 93.0917C280.516 93.0172 280.711 92.9796 280.907 92.981M280.907 89.9427C280.012 89.9427 279.139 90.2085 278.395 90.7063C277.652 91.2041 277.072 91.9116 276.73 92.7394C276.388 93.5673 276.299 94.4782 276.473 95.357C276.647 96.2358 277.078 97.0431 277.71 97.6766C278.342 98.3102 279.148 98.7417 280.025 98.9165C280.902 99.0913 281.81 99.0016 282.636 98.6587C283.462 98.3158 284.168 97.7351 284.665 96.9901C285.162 96.2451 285.427 95.3692 285.427 94.4732C285.427 93.2716 284.951 92.1193 284.103 91.2697C283.255 90.4201 282.105 89.9427 280.907 89.9427Z" fill="#6F522F"/>
<path d="M355.111 168.711C355.316 168.694 355.523 168.719 355.718 168.786C355.913 168.853 356.092 168.959 356.244 169.099C356.396 169.239 356.517 169.409 356.6 169.598C356.683 169.787 356.726 169.991 356.726 170.198C356.726 170.405 356.683 170.609 356.6 170.798C356.517 170.987 356.396 171.157 356.244 171.297C356.092 171.437 355.913 171.544 355.718 171.61C355.523 171.677 355.316 171.702 355.111 171.685C354.739 171.653 354.393 171.483 354.141 171.207C353.888 170.932 353.748 170.572 353.748 170.198C353.748 169.824 353.888 169.464 354.141 169.189C354.393 168.914 354.739 168.743 355.111 168.711ZM355.111 165.673C354.215 165.673 353.339 165.94 352.595 166.44C351.85 166.939 351.271 167.65 350.93 168.48C350.589 169.31 350.503 170.223 350.68 171.103C350.858 171.983 351.293 172.79 351.93 173.422C352.566 174.054 353.376 174.482 354.255 174.652C355.135 174.822 356.045 174.726 356.871 174.377C357.696 174.027 358.399 173.44 358.89 172.689C359.382 171.938 359.64 171.058 359.631 170.16C359.631 168.959 359.155 167.806 358.307 166.957C357.459 166.107 356.31 165.63 355.111 165.63V165.673Z" fill="#6F522F"/>
<path d="M377.713 128.727C378.007 128.727 378.295 128.814 378.54 128.978C378.785 129.142 378.976 129.375 379.088 129.648C379.201 129.921 379.23 130.221 379.173 130.51C379.116 130.8 378.974 131.065 378.766 131.274C378.557 131.483 378.292 131.625 378.003 131.683C377.714 131.74 377.415 131.711 377.143 131.598C376.871 131.485 376.638 131.293 376.475 131.048C376.311 130.803 376.224 130.514 376.224 130.219C376.222 130.023 376.26 129.828 376.334 129.646C376.409 129.465 376.518 129.3 376.657 129.161C376.795 129.022 376.96 128.912 377.141 128.838C377.323 128.763 377.517 128.726 377.713 128.727ZM377.713 125.689C376.819 125.689 375.945 125.954 375.201 126.452C374.458 126.95 373.879 127.658 373.536 128.485C373.194 129.313 373.105 130.224 373.279 131.103C373.454 131.982 373.884 132.789 374.516 133.423C375.149 134.056 375.954 134.488 376.831 134.662C377.708 134.837 378.617 134.748 379.443 134.405C380.269 134.062 380.975 133.481 381.471 132.736C381.968 131.991 382.233 131.115 382.233 130.219C382.233 129.018 381.757 127.865 380.909 127.016C380.061 126.166 378.912 125.689 377.713 125.689Z" fill="#6F522F"/>
<path d="M259.06 128.727C259.354 128.727 259.642 128.814 259.887 128.978C260.132 129.142 260.322 129.375 260.435 129.648C260.548 129.921 260.577 130.221 260.52 130.51C260.462 130.8 260.321 131.065 260.112 131.274C259.904 131.483 259.639 131.625 259.35 131.683C259.061 131.74 258.762 131.711 258.49 131.598C258.218 131.485 257.985 131.293 257.822 131.048C257.658 130.803 257.571 130.514 257.571 130.219C257.569 130.023 257.607 129.828 257.681 129.646C257.755 129.465 257.865 129.3 258.004 129.161C258.142 129.022 258.307 128.912 258.488 128.838C258.669 128.763 258.864 128.726 259.06 128.727ZM259.06 125.689C258.165 125.689 257.292 125.954 256.548 126.452C255.805 126.95 255.225 127.658 254.883 128.485C254.541 129.313 254.452 130.224 254.626 131.103C254.8 131.982 255.231 132.789 255.863 133.423C256.495 134.056 257.301 134.488 258.178 134.662C259.055 134.837 259.963 134.748 260.789 134.405C261.615 134.062 262.321 133.481 262.818 132.736C263.315 131.991 263.58 131.115 263.58 130.219C263.58 129.018 263.104 127.865 262.256 127.016C261.408 126.166 260.258 125.689 259.06 125.689Z" fill="#6F522F"/>
<path d="M262.631 184.768C262.631 184.768 252.921 197.018 240.967 197.018C229.013 197.018 219.304 184.768 219.304 184.768C219.304 184.768 229.013 172.517 240.967 172.517C252.921 172.517 262.631 184.768 262.631 184.768Z" fill="white"/>
<path d="M240.967 195.894C247.098 195.894 252.069 190.913 252.069 184.768C252.069 178.623 247.098 173.642 240.967 173.642C234.836 173.642 229.866 178.623 229.866 184.768C229.866 190.913 234.836 195.894 240.967 195.894Z" fill="#F5EDE0"/>
<path d="M244.948 184.768C244.948 185.557 244.715 186.328 244.277 186.984C243.84 187.641 243.218 188.152 242.491 188.454C241.763 188.756 240.963 188.835 240.19 188.681C239.418 188.527 238.709 188.147 238.152 187.589C237.595 187.031 237.216 186.32 237.063 185.546C236.909 184.772 236.988 183.97 237.289 183.241C237.59 182.512 238.101 181.889 238.755 181.45C239.41 181.012 240.18 180.778 240.967 180.778C242.023 180.778 243.035 181.198 243.782 181.947C244.529 182.695 244.948 183.71 244.948 184.768Z" fill="#6F522F"/>
<path d="M240.622 181.632C240.624 182.102 240.487 182.561 240.228 182.952C239.969 183.343 239.6 183.648 239.168 183.829C238.736 184.009 238.26 184.057 237.801 183.966C237.342 183.875 236.92 183.649 236.588 183.317C236.257 182.986 236.032 182.563 235.941 182.102C235.85 181.642 235.898 181.165 236.078 180.732C236.258 180.299 236.563 179.929 236.953 179.67C237.343 179.41 237.802 179.273 238.27 179.275C238.893 179.278 239.489 179.527 239.93 179.969C240.37 180.41 240.619 181.008 240.622 181.632Z" fill="white"/>
<path d="M171.1 436.99V428.632C171.1 426.974 171.757 425.385 172.926 424.213C174.096 423.041 175.682 422.382 177.336 422.382H196.184C197.837 422.382 199.424 423.041 200.593 424.213C201.762 425.385 202.419 426.974 202.419 428.632V432.838" stroke="white" stroke-width="2.81" stroke-miterlimit="10"/>
<path d="M176.149 436.633V431.227H166.062V436.633C162.282 437.839 159.057 440.36 156.969 443.741C154.881 447.121 154.068 451.139 154.677 455.067C155.286 458.996 157.277 462.577 160.29 465.163C163.302 467.75 167.139 469.172 171.106 469.172C175.073 469.172 178.909 467.75 181.921 465.163C184.934 462.577 186.925 458.996 187.534 455.067C188.143 451.139 187.33 447.121 185.242 443.741C183.154 440.36 179.929 437.839 176.149 436.633Z" fill="#224799"/>
<path d="M202.419 444.385V449.824" stroke="white" stroke-width="1.41" stroke-miterlimit="10" stroke-linecap="round"/>
<path d="M194.123 435.422L198.816 438.136" stroke="white" stroke-width="1.41" stroke-miterlimit="10" stroke-linecap="round"/>
<path d="M206.023 442.309L210.716 445.023" stroke="white" stroke-width="1.41" stroke-miterlimit="10" stroke-linecap="round"/>
<path d="M194.123 445.023L198.816 442.309" stroke="white" stroke-width="1.41" stroke-miterlimit="10" stroke-linecap="round"/>
<path d="M206.023 438.136L210.716 435.422" stroke="white" stroke-width="1.41" stroke-miterlimit="10" stroke-linecap="round"/>
<path d="M163.041 438.136H162.674C160.497 439.422 158.641 441.189 157.248 443.302C155.855 445.416 154.962 447.82 154.637 450.332C155.37 455.122 158.855 458.755 163.041 458.755C167.756 458.755 171.586 454.138 171.586 448.44C171.586 442.742 167.756 438.136 163.041 438.136Z" fill="#1B55D4"/>
<path d="M179.526 180.356L180.055 181.33C181.345 183.691 183.284 185.631 185.643 186.92L186.603 187.449C186.815 187.566 186.991 187.737 187.114 187.946C187.237 188.154 187.301 188.391 187.301 188.633C187.301 188.875 187.237 189.113 187.114 189.321C186.991 189.529 186.815 189.701 186.603 189.817L185.643 190.347C183.283 191.639 181.343 193.583 180.055 195.948L179.526 196.91C179.409 197.122 179.238 197.299 179.031 197.422C178.823 197.545 178.586 197.61 178.345 197.61C178.103 197.61 177.866 197.545 177.658 197.422C177.451 197.299 177.28 197.122 177.163 196.91L176.635 195.948C175.349 193.584 173.413 191.64 171.057 190.347L170.086 189.817C169.874 189.701 169.698 189.529 169.575 189.321C169.452 189.113 169.388 188.875 169.388 188.633C169.388 188.391 169.452 188.154 169.575 187.946C169.698 187.737 169.874 187.566 170.086 187.449L171.057 186.92C173.411 185.629 175.347 183.689 176.635 181.33L177.163 180.356C177.28 180.145 177.451 179.968 177.658 179.845C177.866 179.722 178.103 179.657 178.345 179.657C178.586 179.657 178.823 179.722 179.031 179.845C179.238 179.968 179.409 180.145 179.526 180.356Z" fill="white"/>
<path d="M194.241 196.878L194.565 197.451C195.332 198.857 196.485 200.013 197.888 200.781L198.46 201.095C198.586 201.165 198.69 201.268 198.763 201.392C198.836 201.517 198.875 201.659 198.875 201.803C198.875 201.947 198.836 202.089 198.763 202.214C198.69 202.338 198.586 202.441 198.46 202.511L197.888 202.825C196.485 203.593 195.332 204.749 194.565 206.155L194.241 206.728C194.173 206.854 194.072 206.96 193.948 207.033C193.825 207.107 193.684 207.146 193.54 207.146C193.397 207.146 193.256 207.107 193.132 207.033C193.009 206.96 192.908 206.854 192.839 206.728L192.526 206.155C191.759 204.749 190.606 203.593 189.203 202.825L188.621 202.511C188.495 202.441 188.39 202.338 188.317 202.214C188.244 202.089 188.206 201.947 188.206 201.803C188.206 201.659 188.244 201.517 188.317 201.392C188.39 201.268 188.495 201.165 188.621 201.095L189.203 200.781C190.606 200.013 191.759 198.857 192.526 197.451L192.839 196.878C192.908 196.751 193.009 196.646 193.132 196.572C193.256 196.499 193.397 196.46 193.54 196.46C193.684 196.46 193.825 196.499 193.948 196.572C194.072 196.646 194.173 196.751 194.241 196.878Z" fill="white"/>
<path d="M176.602 215.508L176.796 215.854C177.252 216.692 177.937 217.382 178.771 217.843L179.116 218.027C179.193 218.067 179.257 218.128 179.302 218.202C179.347 218.276 179.371 218.362 179.371 218.449C179.371 218.536 179.347 218.621 179.302 218.695C179.257 218.77 179.193 218.83 179.116 218.87L178.771 219.054C177.937 219.515 177.252 220.205 176.796 221.044L176.602 221.379C176.561 221.453 176.501 221.515 176.428 221.558C176.355 221.601 176.272 221.624 176.187 221.624C176.102 221.624 176.019 221.601 175.946 221.558C175.873 221.515 175.813 221.453 175.771 221.379L175.577 221.044C175.122 220.205 174.437 219.515 173.603 219.054L173.258 218.87C173.181 218.83 173.116 218.77 173.072 218.695C173.027 218.621 173.003 218.536 173.003 218.449C173.003 218.362 173.027 218.276 173.072 218.202C173.116 218.128 173.181 218.067 173.258 218.027L173.603 217.843C174.437 217.382 175.122 216.692 175.577 215.854L175.771 215.508C175.813 215.433 175.873 215.371 175.946 215.328C176.019 215.285 176.102 215.262 176.187 215.262C176.272 215.262 176.355 215.285 176.428 215.328C176.501 215.371 176.561 215.433 176.602 215.508Z" fill="white"/>
<path d="M241.258 85.1204L241.679 85.8989C242.715 87.7911 244.268 89.3477 246.156 90.386L246.933 90.8077C247.102 90.9012 247.242 91.0383 247.34 91.2047C247.438 91.3711 247.49 91.5607 247.49 91.7538C247.49 91.947 247.438 92.1366 247.34 92.303C247.242 92.4693 247.102 92.6064 246.933 92.6999L246.156 93.1324C244.267 94.1634 242.712 95.7173 241.679 97.6088L241.258 98.3873C241.166 98.5589 241.029 98.7023 240.862 98.8022C240.695 98.9022 240.504 98.9549 240.309 98.9549C240.114 98.9549 239.923 98.9022 239.756 98.8022C239.589 98.7023 239.452 98.5589 239.36 98.3873L238.939 97.6088C237.91 95.7177 236.359 94.1636 234.472 93.1324L233.696 92.6999C233.527 92.6064 233.386 92.4693 233.288 92.303C233.191 92.1366 233.139 91.947 233.139 91.7538C233.139 91.5607 233.191 91.3711 233.288 91.2047C233.386 91.0383 233.527 90.9012 233.696 90.8077L234.472 90.386C236.357 89.3475 237.907 87.7907 238.939 85.8989L239.36 85.1204C239.452 84.9487 239.589 84.8053 239.756 84.7054C239.923 84.6055 240.114 84.5527 240.309 84.5527C240.504 84.5527 240.695 84.6055 240.862 84.7054C241.029 84.8053 241.166 84.9487 241.258 85.1204Z" fill="white"/>
<path d="M331.527 348.09L331.947 348.868C332.981 350.76 334.535 352.314 336.425 353.345L337.191 353.777C337.359 353.871 337.5 354.008 337.598 354.174C337.696 354.34 337.747 354.53 337.747 354.723C337.747 354.916 337.696 355.106 337.598 355.272C337.5 355.439 337.359 355.576 337.191 355.669L336.436 356.134C334.548 357.173 332.994 358.729 331.958 360.621L331.538 361.4C331.445 361.572 331.308 361.715 331.141 361.815C330.974 361.915 330.783 361.968 330.588 361.968C330.394 361.968 330.203 361.915 330.035 361.815C329.868 361.715 329.731 361.572 329.639 361.4L329.218 360.621C328.186 358.73 326.637 357.173 324.751 356.134L323.975 355.713C323.806 355.619 323.666 355.482 323.568 355.316C323.47 355.149 323.418 354.96 323.418 354.766C323.418 354.573 323.47 354.384 323.568 354.217C323.666 354.051 323.806 353.914 323.975 353.82L324.751 353.388C326.638 352.357 328.189 350.803 329.218 348.912L329.639 348.133C329.728 347.962 329.862 347.818 330.025 347.716C330.189 347.614 330.377 347.558 330.57 347.553C330.763 347.549 330.953 347.596 331.121 347.691C331.29 347.785 331.43 347.923 331.527 348.09Z" fill="white"/>
<path d="M350.191 360.394L350.439 360.859C351.056 361.982 351.981 362.905 353.104 363.519L353.568 363.779C353.659 363.836 353.735 363.916 353.787 364.01C353.839 364.105 353.867 364.211 353.867 364.319C353.867 364.427 353.839 364.534 353.787 364.628C353.735 364.723 353.659 364.803 353.568 364.86L353.104 365.119C351.978 365.734 351.053 366.662 350.439 367.79L350.191 368.244C350.138 368.349 350.056 368.436 349.957 368.497C349.857 368.559 349.742 368.591 349.625 368.591C349.508 368.591 349.393 368.559 349.293 368.497C349.193 368.436 349.112 368.349 349.058 368.244L348.81 367.79C348.197 366.662 347.271 365.734 346.145 365.119L345.681 364.86C345.59 364.803 345.515 364.723 345.462 364.628C345.41 364.534 345.383 364.427 345.383 364.319C345.383 364.211 345.41 364.105 345.462 364.01C345.515 363.916 345.59 363.836 345.681 363.779L346.145 363.519C347.268 362.905 348.193 361.982 348.81 360.859L349.058 360.394C349.114 360.293 349.196 360.208 349.296 360.15C349.396 360.091 349.509 360.06 349.625 360.06C349.74 360.06 349.854 360.091 349.953 360.15C350.053 360.208 350.135 360.293 350.191 360.394Z" fill="white"/>
<path d="M326.337 373.683L326.596 374.148C327.21 375.276 328.135 376.204 329.261 376.819L329.714 377.067C329.815 377.123 329.9 377.206 329.959 377.305C330.017 377.405 330.048 377.519 330.048 377.635C330.048 377.751 330.017 377.865 329.959 377.964C329.9 378.064 329.815 378.146 329.714 378.203L329.261 378.451C328.135 379.066 327.21 379.993 326.596 381.122L326.337 381.587C326.28 381.678 326.201 381.754 326.106 381.806C326.012 381.859 325.906 381.886 325.798 381.886C325.69 381.886 325.584 381.859 325.49 381.806C325.395 381.754 325.316 381.678 325.259 381.587L325 381.122C324.39 379.994 323.468 379.067 322.346 378.451L321.882 378.203C321.781 378.146 321.696 378.064 321.637 377.964C321.579 377.865 321.548 377.751 321.548 377.635C321.548 377.519 321.579 377.405 321.637 377.305C321.696 377.206 321.781 377.123 321.882 377.067L322.346 376.819C323.468 376.203 324.39 375.276 325 374.148L325.259 373.683C325.316 373.591 325.395 373.516 325.49 373.463C325.584 373.411 325.69 373.384 325.798 373.384C325.906 373.384 326.012 373.411 326.106 373.463C326.201 373.516 326.28 373.591 326.337 373.683Z" fill="white"/>
<path d="M252.392 103.123L252.651 103.588C253.265 104.717 254.19 105.644 255.316 106.259L255.769 106.507C255.873 106.561 255.961 106.642 256.022 106.742C256.083 106.843 256.115 106.958 256.115 107.075C256.115 107.192 256.083 107.307 256.022 107.408C255.961 107.508 255.873 107.589 255.769 107.643L255.316 107.891C254.19 108.506 253.265 109.434 252.651 110.562L252.392 111.027C252.335 111.119 252.256 111.194 252.161 111.246C252.067 111.299 251.961 111.326 251.853 111.326C251.745 111.326 251.639 111.299 251.545 111.246C251.45 111.194 251.371 111.119 251.313 111.027L251.065 110.562C250.449 109.436 249.524 108.509 248.4 107.891L247.937 107.643C247.835 107.587 247.751 107.504 247.692 107.405C247.634 107.305 247.603 107.191 247.603 107.075C247.603 106.959 247.634 106.845 247.692 106.746C247.751 106.646 247.835 106.563 247.937 106.507L248.4 106.259C249.524 105.641 250.449 104.714 251.065 103.588L251.313 103.123C251.371 103.031 251.45 102.956 251.545 102.904C251.639 102.851 251.745 102.824 251.853 102.824C251.961 102.824 252.067 102.851 252.161 102.904C252.256 102.956 252.335 103.031 252.392 103.123Z" fill="white"/>
<path d="M240.87 122.175L241.129 122.64C241.742 123.768 242.668 124.695 243.794 125.31L244.247 125.559C244.338 125.616 244.414 125.696 244.466 125.791C244.518 125.885 244.545 125.991 244.545 126.099C244.545 126.208 244.518 126.314 244.466 126.408C244.414 126.503 244.338 126.583 244.247 126.64L243.794 126.889C242.668 127.504 241.742 128.431 241.129 129.559L240.87 130.024C240.813 130.116 240.733 130.192 240.639 130.244C240.544 130.296 240.438 130.324 240.331 130.324C240.223 130.324 240.117 130.296 240.022 130.244C239.928 130.192 239.848 130.116 239.791 130.024L239.543 129.559C238.912 128.435 237.972 127.516 236.835 126.91L236.371 126.662C236.282 126.603 236.209 126.522 236.159 126.428C236.108 126.334 236.082 126.228 236.082 126.121C236.082 126.014 236.108 125.909 236.159 125.814C236.209 125.72 236.282 125.64 236.371 125.58L236.835 125.332C237.959 124.714 238.883 123.787 239.5 122.661L239.748 122.196C239.8 122.093 239.88 122.007 239.977 121.946C240.075 121.884 240.187 121.851 240.302 121.849C240.418 121.847 240.531 121.876 240.631 121.933C240.731 121.99 240.814 122.074 240.87 122.175Z" fill="white"/>
<path d="M377.842 193.85L378.155 194.423C378.922 195.829 380.075 196.985 381.478 197.754L382.06 198.067C382.186 198.138 382.291 198.24 382.364 198.365C382.437 198.489 382.475 198.631 382.475 198.775C382.475 198.92 382.437 199.062 382.364 199.186C382.291 199.311 382.186 199.413 382.06 199.484L381.478 199.797C380.075 200.566 378.922 201.721 378.155 203.127L377.842 203.701C377.774 203.827 377.672 203.932 377.549 204.006C377.425 204.079 377.284 204.118 377.141 204.118C376.997 204.118 376.856 204.079 376.733 204.006C376.61 203.932 376.508 203.827 376.44 203.701L376.116 203.127C375.349 201.721 374.196 200.566 372.793 199.797L372.221 199.484C372.095 199.413 371.991 199.311 371.918 199.186C371.845 199.062 371.806 198.92 371.806 198.775C371.806 198.631 371.845 198.489 371.918 198.365C371.991 198.24 372.095 198.138 372.221 198.067L372.793 197.754C374.196 196.985 375.349 195.829 376.116 194.423L376.44 193.85C376.508 193.724 376.61 193.618 376.733 193.545C376.856 193.471 376.997 193.433 377.141 193.433C377.284 193.433 377.425 193.471 377.549 193.545C377.672 193.618 377.774 193.724 377.842 193.85Z" fill="white"/>
<path d="M360.171 212.491L360.354 212.826C360.81 213.664 361.495 214.354 362.328 214.816L362.674 214.999C362.748 215.042 362.809 215.104 362.852 215.178C362.894 215.252 362.917 215.336 362.917 215.421C362.917 215.507 362.894 215.591 362.852 215.665C362.809 215.739 362.748 215.8 362.674 215.843L362.328 216.027C361.491 216.487 360.803 217.177 360.343 218.016L360.16 218.351C360.12 218.428 360.059 218.493 359.985 218.538C359.911 218.583 359.826 218.607 359.739 218.607C359.652 218.607 359.567 218.583 359.493 218.538C359.419 218.493 359.358 218.428 359.318 218.351L359.135 218.016C358.679 217.175 357.989 216.484 357.15 216.027L356.815 215.843C356.738 215.803 356.674 215.742 356.629 215.668C356.584 215.593 356.56 215.508 356.56 215.421C356.56 215.334 356.584 215.249 356.629 215.175C356.674 215.1 356.738 215.04 356.815 214.999L357.15 214.816C357.989 214.358 358.679 213.667 359.135 212.826L359.318 212.491C359.357 212.411 359.418 212.344 359.493 212.297C359.569 212.25 359.656 212.225 359.744 212.225C359.833 212.225 359.92 212.25 359.996 212.297C360.071 212.344 360.131 212.411 360.171 212.491Z" fill="white"/>
<defs>
<linearGradient id="paint0_linear_0_1" x1="278.069" y1="564.955" x2="305.17" y2="127.567" gradientUnits="userSpaceOnUse">
<stop stop-color="#393591"/>
<stop offset="1" stop-color="#59D9FA"/>
</linearGradient>
<linearGradient id="paint1_linear_0_1" x1="296.992" y1="326.303" x2="307.157" y2="524.038" gradientUnits="userSpaceOnUse">
<stop stop-color="#393591"/>
<stop offset="1" stop-color="#59D9FA"/>
</linearGradient>
<linearGradient id="paint2_linear_0_1" x1="316.66" y1="87.618" x2="292.268" y2="441.178" gradientUnits="userSpaceOnUse">
<stop stop-color="#393591"/>
<stop offset="1" stop-color="#59D9FA"/>
</linearGradient>
<linearGradient id="paint3_linear_0_1" x1="820.445" y1="124.575" x2="-183.272" y2="379.253" gradientUnits="userSpaceOnUse">
<stop stop-color="#393591"/>
<stop offset="1" stop-color="#59D9FA"/>
</linearGradient>
<linearGradient id="paint4_linear_0_1" x1="137.608" y1="267.082" x2="10.4252" y2="302.069" gradientUnits="userSpaceOnUse">
<stop stop-color="#393591"/>
<stop offset="1" stop-color="#59D9FA"/>
</linearGradient>
<linearGradient id="paint5_linear_0_1" x1="442.747" y1="431.021" x2="540.779" y2="329.838" gradientUnits="userSpaceOnUse">
<stop stop-color="#393591"/>
<stop offset="1" stop-color="#59D9FA"/>
</linearGradient>
<linearGradient id="paint6_linear_0_1" x1="510.24" y1="397.654" x2="394.104" y2="460.303" gradientUnits="userSpaceOnUse">
<stop stop-color="#393591"/>
<stop offset="1" stop-color="#59D9FA"/>
</linearGradient>
<linearGradient id="paint7_linear_0_1" x1="209.68" y1="388.701" x2="93.5437" y2="451.351" gradientUnits="userSpaceOnUse">
<stop stop-color="#393591"/>
<stop offset="1" stop-color="#59D9FA"/>
</linearGradient>
<linearGradient id="paint8_linear_0_1" x1="278.323" y1="222.083" x2="209.802" y2="288.353" gradientUnits="userSpaceOnUse">
<stop stop-color="white"/>
<stop offset="1" stop-color="white" stop-opacity="0"/>
</linearGradient>
<linearGradient id="paint9_linear_0_1" x1="304.293" y1="248.934" x2="235.772" y2="315.204" gradientUnits="userSpaceOnUse">
<stop stop-color="white"/>
<stop offset="1" stop-color="white" stop-opacity="0"/>
</linearGradient>
</defs>
</svg>
