<svg xmlns="http://www.w3.org/2000/svg" width="24" height="16" viewBox="0 0 24 16">
  <rect width="24" height="16" fill="#b22234"/>
  <g fill="#fff">
    <rect y="2" width="24" height="2"/>
    <rect y="6" width="24" height="2"/>
    <rect y="10" width="24" height="2"/>
    <rect y="14" width="24" height="2"/>
  </g>
  <rect width="10" height="8" fill="#3c3b6e"/>
  <g fill="#fff">
    <circle cx="1.5" cy="1.5" r="0.5"/>
    <circle cx="3.5" cy="1.5" r="0.5"/>
    <circle cx="5.5" cy="1.5" r="0.5"/>
    <circle cx="7.5" cy="1.5" r="0.5"/>
    <circle cx="9" cy="1.5" r="0.5"/>
    <circle cx="2.5" cy="3" r="0.5"/>
    <circle cx="4.5" cy="3" r="0.5"/>
    <circle cx="6.5" cy="3" r="0.5"/>
    <circle cx="8.5" cy="3" r="0.5"/>
    <circle cx="1.5" cy="4.5" r="0.5"/>
    <circle cx="3.5" cy="4.5" r="0.5"/>
    <circle cx="5.5" cy="4.5" r="0.5"/>
    <circle cx="7.5" cy="4.5" r="0.5"/>
    <circle cx="9" cy="4.5" r="0.5"/>
    <circle cx="2.5" cy="6" r="0.5"/>
    <circle cx="4.5" cy="6" r="0.5"/>
    <circle cx="6.5" cy="6" r="0.5"/>
    <circle cx="8.5" cy="6" r="0.5"/>
  </g>
</svg>

